<svg xmlns="http://www.w3.org/2000/svg" viewBox="0 0 240 160"><title>abn-amro</title><path d="M18,65.45614V96.57238l18.67345,18.67036V77.902L55.34381,96.57238V65.45614Z" fill="#A7AAB2" /><path d="M79.85271,82.71858H75.50545l2.08409-9.42009h.05866l2.2045,9.42009Zm-6.49,8.1789,1.235-4.82583H80.8191l1.21032,4.82583h4.80113l-5.91573-21.798H74.90338l-6.03923,21.798Zm22.008-9.53742H98.026c2.29712,0,3.01961,1.17636,3.01961,3.10916,0,3.05049-2.17363,3.08136-3.14,3.08136H95.37069V81.36006Zm0-8.90447h2.80657a2.61039,2.61039,0,0,1,2.6275,2.7757c0,2.11188-1.3863,2.7757-2.38667,2.7757h-3.0474ZM98.872,90.89748c1.9328,0,6.73084-.24083,6.73084-5.76753,0-2.98874-.8429-5.07283-4.07247-5.52361v-.06175c2.47313-.48166,3.71123-2.294,3.71123-4.798,0-4.64984-2.86524-5.64711-6.33872-5.64711H90.81348v21.798Zm12.13712,0v-21.795h6.15965l5.79531,15.095h.06175v-15.095h4.25463v21.795h-6.00527l-5.94969-15.93789h-.06175V90.89748h-4.25463ZM131.30349,78.43l2.91463-2.91773L137.142,78.43l-2.9239,2.9239Zm19.0069,4.28859h-4.34417l2.081-9.42009h.05867Zm-6.49,8.1789,1.235-4.82583h6.21831l1.21341,4.82583h4.80112l-5.91881-21.798h-6.00837l-6.04232,21.798Zm17.05248,0v-21.795H168.212l3.41173,14.82329h.06175l3.62169-14.82328h7.09517v21.795H177.9655V74.08582h-.06175l-4.196,16.81166h-4.34726l-3.98911-16.81167h-.05866V90.89748Zm32.44389-18.44189H195.336c1.45424,0,2.328.78115,2.328,2.86524,0,1.3894-.51253,3.20178-2.328,3.20178h-2.01925Zm0,9.417h1.17944c3.49819,0,3.25736,2.20451,3.25736,4.80113a9.96852,9.96852,0,0,0,.48475,4.22376H202.706c-.42609-.90465-.51254-5.01108-.51254-6.40048,0-3.92426-2.95786-4.16818-3.95513-4.28859v-.05558c2.95786-.48474,4.04468-2.56574,4.04468-5.34453,0-3.71431-1.99455-5.70577-5.09753-5.70577h-8.4259v21.798h4.56339v-9.028h-.00619Zm21.162,6.12877c-2.56575,0-2.89611-2.41445-2.89611-8.0029,0-5.58536.32727-7.99982,2.89611-7.99982s2.89921,2.41446,2.89921,7.99982c0,5.58845-.33346,8.0029-2.8992,8.0029Zm0,3.25736C222,91.25872,222,85.71041,222,79.99846c0-5.76444,0-11.25718-7.52125-11.25718-7.51508,0-7.51508,5.49583-7.51508,11.25718,0,5.712,0,11.26026,7.51507,11.26026Z" fill="#A7AAB2" /><path d="M36.67345,115.24274,55.34381,96.57238,36.67345,77.902v37.34072Z" opacity="0.3" fill="#A7AAB2" /></svg>