<?xml version="1.0" encoding="UTF-8"?>
<svg xmlns="http://www.w3.org/2000/svg" id="Layer_1" data-name="Layer 1" viewBox="0 0 480 320">
  <defs>
    <style>.cls-1{fill:#505666;fill-rule:evenodd;}</style>
  </defs>
  <path class="cls-1" d="M264.666,123.19266v29.941H212.23962V100.73693h29.95793V96.99431H212.23962a3.74386,3.74386,0,0,0-3.74477,3.74262v52.39672a3.74387,3.74387,0,0,0,3.74477,3.74262H264.666a3.74385,3.74385,0,0,0,3.74473-3.74262v-29.941Z"></path>
  <path class="cls-1" d="M249.83326,125.4999c-.96986,1.67856-6.5514,4.32273-6.5514,4.32273s-.499-6.15287.47089-7.83144l.00281.00187,17.55349-30.38635-.00281-.00187a3.51012,3.51012,0,0,1,6.08053,3.50871l-.00375-.00189-.01872.0337-17.5151,30.319-.01968.03368.00374.00187Zm18.02348-38.21779a7.02353,7.02353,0,0,0-9.59123,2.56839L240.712,120.23684c-1.93883,3.35619-.94084,15.66287-.94084,15.66287s11.164-5.28926,13.10286-8.64546L270.42751,96.8679a7.01472,7.01472,0,0,0-2.57077-9.58579Z"></path>
  <path class="cls-1" d="M62.48678,187.64066a11.85983,11.85983,0,0,1,3.77189-8.84849q3.7719-3.65187,11.7454-3.65093A25.67654,25.67654,0,0,1,89.258,177.80505v5.00015a21.56444,21.56444,0,0,0-10.79424-2.82849q-5.38821,0-8.24779,1.9733a6.49247,6.49247,0,0,0-2.85817,5.69065,4.81027,4.81027,0,0,0,1.85645,3.84836,11.93019,11.93019,0,0,0,4.58357,2.28674q2.72712.73963,5.97286,1.891a54.30419,54.30419,0,0,1,5.96257,2.50008,11.70318,11.70318,0,0,1,4.57982,4.1777,12.23558,12.23558,0,0,1,1.86114,6.87426,10.40529,10.40529,0,0,1-4.21658,8.783q-4.217,3.19154-11.76037,3.1906a28.00272,28.00272,0,0,1-13.31255-3.15785v-5.26306a22.68505,22.68505,0,0,0,12.95118,3.58544q11.43365,0,11.46735-7.13812a7.30286,7.30286,0,0,0-1.85646-5.08155,10.94523,10.94523,0,0,0-4.58357-3.01l-5.94758-1.97329q-3.22143-1.05261-5.95977-2.138a10.808,10.808,0,0,1-4.60415-3.47035,9.29273,9.29273,0,0,1-1.86489-5.90493"></path>
  <path class="cls-1" d="M100.41757,220.6665h4.871V187.0484h-4.871v33.6181Zm-.26306-44.93393h5.398v5.395h-5.398v-5.395Z"></path>
  <path class="cls-1" d="M118.513,203.693a20.28966,20.28966,0,0,0,.80511,6.23334,7.23127,7.23127,0,0,0,2.3648,3.635,8.72069,8.72069,0,0,0,3.13716,1.57846,15.38933,15.38933,0,0,0,3.71291.39484,20.94348,20.94348,0,0,0,7.88457-1.5457V196.55485q0-5.656-8.47623-5.65791a11.17276,11.17276,0,0,0-3.21955.42759,9.20318,9.20318,0,0,0-2.95647,1.64488,7.84359,7.84359,0,0,0-2.39757,3.94754,22.97286,22.97286,0,0,0-.85473,6.776m-4.871.01778a24.90666,24.90666,0,0,1,1.41645-8.94019,11.2484,11.2484,0,0,1,3.8056-5.35008,14.68312,14.68312,0,0,1,9.07726-2.96416,19.1151,19.1151,0,0,1,7.232,1.20045,8.40327,8.40327,0,0,1,4.10984,3.09234,13.9907,13.9907,0,0,1,1.59434,3.27292,9.52733,9.52733,0,0,1,.411,2.73025v25.3282a12.628,12.628,0,0,1-.64128,4.1122,11.76564,11.76564,0,0,1-2.12046,3.66777,9.57873,9.57873,0,0,1-4.51991,2.79574,23.59808,23.59808,0,0,1-7.34624,1.003,39.37321,39.37321,0,0,1-9.57251-1.21635V227.8703a33.13538,33.13538,0,0,0,9.04731,1.21729,21.62539,21.62539,0,0,0,5.40367-.57449A6.493,6.493,0,0,0,134.709,226.872a6.10124,6.10124,0,0,0,1.34717-2.11645,7.81168,7.81168,0,0,0,.36138-2.52627v-3.34778a25.39787,25.39787,0,0,1-7.88457,1.22571,21.952,21.952,0,0,1-4.18474-.378,13.65063,13.65063,0,0,1-3.96943-1.498,11.80913,11.80913,0,0,1-3.47513-2.89865,13.84308,13.84308,0,0,1-2.35638-4.741,23.59693,23.59693,0,0,1-.90529-6.88081"></path>
  <path class="cls-1" d="M150.27481,220.66641V189.7458a31.5693,31.5693,0,0,1,14.23378-3.28976q6.34452,0,9.84586,3.22426,3.50088,3.22521,3.50133,9.07867v21.90744h-4.871V198.759a9.77584,9.77584,0,0,0-.29584-2.51692,7.87848,7.87848,0,0,0-1.14963-2.3513,5.37906,5.37906,0,0,0-2.75988-1.92464,14.59029,14.59029,0,0,0-4.79608-.67461,31.3781,31.3781,0,0,0-8.83758,1.34921v28.0257Z"></path>
  <path class="cls-1" d="M193.32064,197.96937h11.38777a17.48477,17.48477,0,0,0,5.6115-.77285,6.56666,6.56666,0,0,0,3.27476-2.15481,8.21348,8.21348,0,0,0,1.38277-2.73025,14.08583,14.08583,0,0,0,0-6.34842,8.22218,8.22218,0,0,0-1.38277-2.73025,6.57278,6.57278,0,0,0-3.27476-2.15482,17.51107,17.51107,0,0,0-5.6115-.77284H193.32064v17.66424Zm-4.871,22.69713V175.73257h16.52181q7.34014,0,11.28947,3.33936,3.94884,3.33889,3.94976,9.71959a14.38673,14.38673,0,0,1-.92214,5.26307,12.19217,12.19217,0,0,1-2.08959,3.68461,11.83722,11.83722,0,0,1-2.78137,2.2858,12.65176,12.65176,0,0,1-2.63257,1.28279q-1.02093.31438-1.90888.50993L222.2179,220.6665h-5.72666L204.774,202.54192H193.32064V220.6665Z"></path>
  <path class="cls-1" d="M231.70061,202.41008h19.71516a13.2853,13.2853,0,0,0-.28085-2.56557,23.974,23.974,0,0,0-1.12063-3.635,7.74555,7.74555,0,0,0-3.03324-3.70052,9.47044,9.47044,0,0,0-5.42332-1.4802q-5.01048,0-7.26948,2.59831-2.2581,2.59926-2.58764,8.783m-4.871,1.87505v-.49308q0-17.33583,14.72807-17.33583a15.3587,15.3587,0,0,1,5.58058.97027,12.99406,12.99406,0,0,1,3.97692,2.28675,12.06161,12.06161,0,0,1,2.58574,3.43759,23.56992,23.56992,0,0,1,1.58687,3.60135,20.028,20.028,0,0,1,.73675,3.58543q.26121,2.04066.26214,2.56557v1.44745l-.12921,2.36815H231.70061q.46062,5.06658,3.0988,7.35238,2.63582,2.28768,7.8134,2.28581,7.31346,0,11.51229-2.50007V218.857a26.97477,26.97477,0,0,1-11.77537,2.3354h-.19845a19.54634,19.54634,0,0,1-5.41305-.70736,15.385,15.385,0,0,1-4.84006-2.45048,11.30534,11.30534,0,0,1-3.72416-5.24622,23.78231,23.78231,0,0,1-1.34435-8.50325"></path>
  <path class="cls-1" d="M267.368,204.18549q0,6.595,2.4968,9.51562,2.49684,2.91925,8.01658,2.91924a20.52147,20.52147,0,0,0,8.27964-1.673V196.86866q0-5.97041-8.9041-5.97135a12.08224,12.08224,0,0,0-3.35059.42666,9.32377,9.32377,0,0,0-3.10532,1.70663,8.252,8.252,0,0,0-2.52959,4.101,23.44183,23.44183,0,0,0-.90342,7.05391m-4.871.09918a26.27524,26.27524,0,0,1,1.03731-7.779,15.72994,15.72994,0,0,1,2.55391-5.21348,12.11917,12.11917,0,0,1,3.60712-3.02684,13.09694,13.09694,0,0,1,3.888-1.48021,20.4685,20.4685,0,0,1,3.67357-.32841,20.05687,20.05687,0,0,1,6.35953.90477,11.94307,11.94307,0,0,1,4.05462,2.08839,9.441,9.441,0,0,1,2.19068,2.82849,9.56633,9.56633,0,0,1,1.00545,2.71433,13.63548,13.63548,0,0,1,.16476,2.08839v36.05175H286.161v-13.2414a25.66538,25.66538,0,0,1-8.27964,1.30149,19.70627,19.70627,0,0,1-5.43551-.70735,15.48446,15.48446,0,0,1-4.85972-2.45048,11.3163,11.3163,0,0,1-3.73914-5.24716,23.6887,23.6887,0,0,1-1.35-8.50324"></path>
  <path class="cls-1" d="M300.203,206.52191V187.04905h4.871v19.69181q0,5.12271,2.23467,7.50022,2.23283,2.3789,6.99708,2.37937,4.69869,0,6.9652-2.37937,2.26653-2.37752,2.26743-7.50022V187.04905h4.871v19.47286q0,7.0062-3.68483,10.83864-3.68341,3.83151-10.4188,3.83245-6.73494,0-10.41883-3.83245-3.6834-3.83151-3.68391-10.83864"></path>
  <path class="cls-1" d="M341.3971,202.41008h19.71514a13.28688,13.28688,0,0,0-.28085-2.56557,23.9754,23.9754,0,0,0-1.12064-3.635,7.74543,7.74543,0,0,0-3.03324-3.70052,9.47046,9.47046,0,0,0-5.4233-1.4802q-5.01049,0-7.26949,2.59831-2.2581,2.59926-2.58762,8.783m-4.871,1.87505v-.49308q0-17.33583,14.72811-17.33583a15.359,15.359,0,0,1,5.58059.97027,12.99473,12.99473,0,0,1,3.97693,2.28675,12.06326,12.06326,0,0,1,2.58574,3.43759,23.56821,23.56821,0,0,1,1.58678,3.60135,20.03,20.03,0,0,1,.73685,3.58543q.26117,2.04066.2621,2.56557v1.44745l-.12917,2.36815H341.3971q.4606,5.06658,3.09876,7.35238,2.63581,2.28768,7.81343,2.28581,7.31347,0,11.51228-2.50007V218.857a26.9748,26.9748,0,0,1-11.77535,2.3354h-.1985a19.54607,19.54607,0,0,1-5.413-.70736,15.38548,15.38548,0,0,1-4.8401-2.45048,11.30552,11.30552,0,0,1-3.72414-5.24622,23.78206,23.78206,0,0,1-1.34438-8.50325"></path>
  <path class="cls-1" d="M371.70062,196.17394a9.2116,9.2116,0,0,1,2.94522-6.87146q2.94617-2.84485,9.00236-2.84626a19.99975,19.99975,0,0,1,8.62323,2.04348V193.338a15.51175,15.51175,0,0,0-8.09714-2.30919q-7.60267,0-7.60275,5.14517a3.19431,3.19431,0,0,0,1.8434,2.82006,18.38725,18.38725,0,0,0,4.50864,1.78056q2.66678.71016,5.33248,1.69821a10.23187,10.23187,0,0,1,4.52559,3.34778,9.42592,9.42592,0,0,1,1.85923,6.01814,8.14345,8.14345,0,0,1-3.27479,6.86771q-3.27474,2.487-9.06787,2.486a20.62766,20.62766,0,0,1-10.16977-2.53283V213.521a18.83762,18.83762,0,0,0,9.97225,2.9679q7.66875,0,7.66922-4.6502a4.67517,4.67517,0,0,0-1.84336-3.92415,12.64193,12.64193,0,0,0-4.50864-2.12768q-2.66678-.70734-5.33252-1.54944a10.32015,10.32015,0,0,1-4.52555-2.83691,7.357,7.357,0,0,1-1.85923-5.22657"></path>
  <path class="cls-1" d="M398.09487,191.4893v-4.44063h5.85865v-9.50625h4.87093v9.50625h8.68877v4.44063h-8.68877V211.982a4.90732,4.90732,0,0,0,1.0701,3.60228q1.06866,1.03577,3.76815,1.03577a9.3835,9.3835,0,0,0,3.85052-.78877v4.57162a12.2733,12.2733,0,0,1-4.27836.78969h-.16477a11.66989,11.66989,0,0,1-2.63256-.29566,11.84,11.84,0,0,1-2.89655-1.1677,6.24629,6.24629,0,0,1-2.60077-2.92767,11.69238,11.69238,0,0,1-.98669-5.08248V191.4893Z"></path>
</svg>
