<?xml version="1.0" encoding="UTF-8"?>
<svg xmlns="http://www.w3.org/2000/svg" id="Layer_1" data-name="Layer 1" viewBox="0 0 240 160">
  <defs>
    <style>.cls-1{fill:#fff;}</style>
  </defs>
  <path class="cls-1" d="M80.38482,57.65479l-3.82737,11.482a1.27428,1.27428,0,0,1-1.20975.87212H58.30283l.25048,1.97722a.64125.64125,0,0,0,.63543.57432H74.072a1.27579,1.27579,0,0,1,0,2.55158H59.18874a3.191,3.191,0,0,1-3.16833-2.81694l-.42983-3.40121a1.28384,1.28384,0,0,1,1.27085-1.43654H74.42827l2.97639-8.93043H55.40375a1.27632,1.27632,0,0,1-1.26587-1.115l-.2704-2.13671a.641.641,0,0,0-.63409-.5756H51.10792a1.27579,1.27579,0,0,1,0-2.55157h2.12547a3.18976,3.18976,0,0,1,3.16705,2.81693l.12828,1.01041H79.17507a1.27457,1.27457,0,0,1,1.20975,1.67946ZM99.02451,69.51837h-.64126c-1.81748,0-.61453,2.35245-1.60357,3.79549a1.68768,1.68768,0,0,1-1.657.775c-2.40529,0-2.13841-2.48552-2.13841-3.47453V63.024c0-2.35181.18719-3.47452,2.13841-3.47452,3.314,0,1.0686,3.9025,3.26058,3.9025h.61453a1.10719,1.10719,0,0,0,1.12266-1.09165l.00012-.00434c0-3.50131-1.95134-5.10485-4.99789-5.10485-3.04727,0-5.02455,1.36348-5.02455,5.77286v7.59037a6.77966,6.77966,0,0,0,1.01509,4.14254,4.72775,4.72775,0,0,0,4.00946,1.63093c3.87511,0,4.51637-1.978,4.81058-3.34145a12.74721,12.74721,0,0,0,.214-2.40463A1.13048,1.13048,0,0,0,99.02451,69.51837ZM74.0718,76.3878a2.55156,2.55156,0,1,0,2.55155,2.55157A2.55161,2.55161,0,0,0,74.0718,76.3878ZM61.31415,62.35422h.00146A1.27511,1.27511,0,0,0,62.59,61.07845V61.077a1.27511,1.27511,0,0,0-1.27583-1.27431H51.10792a1.27577,1.27577,0,0,0,0,2.55154Zm2.55033,2.55157A1.27576,1.27576,0,0,0,62.58871,63.63H52.38247a1.27578,1.27578,0,1,0,0,2.55155H62.58871A1.27578,1.27578,0,0,0,63.86448,64.90579Zm-6.37783,11.482a2.55156,2.55156,0,1,0,2.55155,2.55157A2.55152,2.55152,0,0,0,57.48665,76.3878Zm54.75978-18.92269c-.0071-.00009-.01415-.00009-.0212,0H111.584a1.11211,1.11211,0,0,0-1.12278,1.10115V65.563H105.971V58.58786a1.112,1.112,0,0,0-1.10109-1.12278c-.00729-.00006-.01446-.00006-.02163,0H104.207a1.1124,1.1124,0,0,0-1.12278,1.10194q-.00018.01044,0,.02084V75.05174a1.11225,1.11225,0,0,0,1.10237,1.12208q.0102,0,.02041,0h.64125a1.12882,1.12882,0,0,0,1.12272-1.12205V67.86193h4.49025v7.18981a1.11189,1.11189,0,0,0,1.10152,1.12208c.00711.00006.01415.00006.0212,0h.64125a1.12883,1.12883,0,0,0,1.12217-1.12205V58.58786A1.1119,1.1119,0,0,0,112.24643,57.46511Zm71.71731,0c-.00717-.00009-.01422-.00009-.02126,0h-6.44087A1.112,1.112,0,0,0,176.379,58.5662q-.00018.01084,0,.02166v.07959a1.112,1.112,0,0,0,1.10116,1.12269q.01074.00009.0215,0h1.76464v15.2616a1.11133,1.11133,0,0,0,1.10042,1.12205c.00729.00009.01446.00009.02175,0h.64186a1.12872,1.12872,0,0,0,1.12205-1.12205V59.79014h1.79015a1.12895,1.12895,0,0,0,1.122-1.12269v-.07959A1.11177,1.11177,0,0,0,183.96374,57.46511Zm-10.47427,0c-.00692-.00006-.01385-.00006-.02089,0h-.64114a1.11235,1.11235,0,0,0-1.12277,1.10194q-.00018.01044,0,.02084V70.61433c0,2.24546-.37377,3.47453-2.13781,3.47453-1.63029,0-2.13841-.96161-2.13841-3.47453V58.58786a1.11212,1.11212,0,0,0-1.10128-1.12278q-.01074-.00009-.0215,0h-.64125a1.11192,1.11192,0,0,0-1.12217,1.10152V70.61433a6.77966,6.77966,0,0,0,1.01515,4.14254,4.72776,4.72776,0,0,0,4.00946,1.63093c3.87512,0,4.48965-1.978,4.81058-3.34145a11.12465,11.12465,0,0,0,.214-2.432V58.58786A1.11247,1.11247,0,0,0,173.48947,57.46508Zm31.98776-1.48975V87.8698a6.38644,6.38644,0,0,1-6.37892,6.37892H46.00477a6.36723,6.36723,0,0,1-4.21852-1.59349l-5.16042-5.15917.01592-.01588a6.34079,6.34079,0,0,1-2.119-4.7135V50.87222a6.38639,6.38639,0,0,1,6.37892-6.37889H193.99523a6.34055,6.34055,0,0,1,4.7134,2.11895l.01591-.01589,5.10309,5.10184A6.41321,6.41321,0,0,1,205.47723,55.97533Zm-7.65475-5.10311a3.83141,3.83141,0,0,0-3.82725-3.82735H40.90169a3.8316,3.8316,0,0,0-3.82738,3.82735V82.76668A3.83158,3.83158,0,0,0,40.90169,86.594H193.99523a3.83139,3.83139,0,0,0,3.82725-3.82735Zm-73.981,23.00266c-.00675-.00006-.01349-.00009-.02029,0h-4.38336V67.86193h3.95541a1.12941,1.12941,0,0,0,1.12278-1.12265v-.05351a1.11244,1.11244,0,0,0-1.10195-1.12278c-.007-.00006-.01391-.00006-.02083,0h-3.95541V59.79014h4.27634a1.12949,1.12949,0,0,0,1.12278-1.12269v-.07959a1.11248,1.11248,0,0,0-1.10207-1.12275c-.00686-.00006-.01378-.00006-.02071,0h-6.04031a1.11237,1.11237,0,0,0-1.12271,1.102V75.05174a1.11223,1.11223,0,0,0,1.10236,1.12205c.00681.00006.01361.00006.02035,0h6.14733a1.12937,1.12937,0,0,0,1.12278-1.12205v-.05347A1.113,1.113,0,0,0,123.84147,73.87488ZM161.55182,63.024v7.59037c0,3.66242-1.04248,5.77347-5.02461,5.77347-3.98274,0-5.02461-2.406-5.02461-5.77347V63.024c0-3.36754,1.04187-5.77286,5.02461-5.77286C160.50934,57.2511,161.55182,59.65642,161.55182,63.024Zm-2.88681,0c0-2.03085-.107-3.47452-2.1378-3.47452-2.03152,0-2.13853,1.44367-2.13853,3.47452v7.59037c0,2.325.428,3.47453,2.13853,3.47453s2.1378-1.1495,2.1378-3.47453Zm-23.05936,6.49441h-.64126c-1.81748,0-.61453,2.35245-1.6035,3.79549a1.688,1.688,0,0,1-1.65708.775c-2.40529,0-2.13853-2.48552-2.13853-3.47453V63.024c0-2.35181.18731-3.47452,2.13853-3.47452,3.31409,0,1.0686,3.9025,3.26058,3.9025h.61454a1.1073,1.1073,0,0,0,1.12265-1.09171V62.356c0-3.50131-1.95116-5.10485-4.99783-5.10485-3.04721,0-5.02455,1.36348-5.02455,5.77286v7.59037a6.77966,6.77966,0,0,0,1.015,4.14254,4.72807,4.72807,0,0,0,4.00958,1.63093c3.87512,0,4.51637-1.978,4.81058-3.34145a12.75136,12.75136,0,0,0,.214-2.40463A1.13051,1.13051,0,0,0,135.60565,69.51837Zm10.60825-2.80591,2.77967-7.75083a1.59354,1.59354,0,0,0,.0529-.34705,1.11811,1.11811,0,0,0-1.0864-1.149q-.01785-.0005-.03565-.00045h-.56175a1.11592,1.11592,0,0,0-1.04175.7483L143.67487,65.563h-1.12278V58.58786a1.112,1.112,0,0,0-1.10109-1.12278c-.00723-.00006-.0144-.00006-.02156,0h-.64132a1.11243,1.11243,0,0,0-1.12278,1.10194q-.00009.01044,0,.02084V75.05174a1.11233,1.11233,0,0,0,1.10237,1.12208q.0102,0,.02041,0h.64132a1.1288,1.1288,0,0,0,1.12265-1.12205V67.86193h1.12278l2.72622,7.563a1.11488,1.11488,0,0,0,1.04187.74891h.5617a1.11221,1.11221,0,0,0,1.12216-1.10206v-.02a1.79516,1.79516,0,0,0-.05357-.37445Z"></path>
  <path class="cls-1" d="M87.8068,107.28369H85.84722a1.54433,1.54433,0,0,0-1.71457,1.71457v4.79384a1.54449,1.54449,0,0,0,1.71457,1.71457H87.8068a1.54448,1.54448,0,0,0,1.71455-1.71457V112.754H88.39009v1.09641a.58878.58878,0,0,1-.66489.653H85.94056a.58519.58519,0,0,1-.65319-.653v-4.91064a.58533.58533,0,0,1,.65319-.6532H87.7252a.58891.58891,0,0,1,.66489.6532v.81657h1.13126v-.75808A1.54432,1.54432,0,0,0,87.8068,107.28369Z"></path>
  <path class="cls-1" d="M107.42312,107.28369h-1.95957a1.54434,1.54434,0,0,0-1.71458,1.71457v4.79384a1.5445,1.5445,0,0,0,1.71458,1.71457h1.95957a1.54448,1.54448,0,0,0,1.71455-1.71457V112.754h-1.13125v1.09641a.58879.58879,0,0,1-.66492.653h-1.78462a.58519.58519,0,0,1-.65318-.653v-4.91064a.58533.58533,0,0,1,.65318-.6532h1.78462a.58892.58892,0,0,1,.66492.6532v.81657h1.13125v-.75808A1.54431,1.54431,0,0,0,107.42312,107.28369Z"></path>
  <path class="cls-1" d="M80.36611,113.82712a.5923.5923,0,0,1-.66493.66474h-1.9128a.584.584,0,0,1-.65318-.66474v-6.49686H75.98047v6.46184a1.54457,1.54457,0,0,0,1.71456,1.71457h2.11123A1.54463,1.54463,0,0,0,81.521,113.7921v-6.46184h-1.1549Z"></path>
  <polygon class="cls-1" points="96.332 110.759 93.101 110.759 93.101 107.33 91.947 107.33 91.947 115.46 93.101 115.46 93.101 111.763 96.332 111.763 96.332 115.46 97.487 115.46 97.487 107.33 96.332 107.33 96.332 110.759"></polygon>
  <path class="cls-1" d="M71.65407,107.28369H69.54286a1.54447,1.54447,0,0,0-1.71477,1.71457v4.79384a1.54464,1.54464,0,0,0,1.71477,1.71457h2.11121a1.54457,1.54457,0,0,0,1.71457-1.71457v-4.79384A1.54441,1.54441,0,0,0,71.65407,107.28369Zm.55985,6.56672a.58879.58879,0,0,1-.66492.653H69.63619a.60114.60114,0,0,1-.65318-.688v-4.87562a.58532.58532,0,0,1,.65318-.6532H71.549a.5842.5842,0,0,1,.66492.6532Z"></path>
  <path class="cls-1" d="M63.8052,107.28369H61.84563a1.54433,1.54433,0,0,0-1.71457,1.71457v4.79384a1.5445,1.5445,0,0,0,1.71457,1.71457H63.8052a1.54458,1.54458,0,0,0,1.71457-1.71457V112.754H64.38834v1.09641a.5888.5888,0,0,1-.66493.653H61.939a.58519.58519,0,0,1-.65319-.653v-4.91064a.58533.58533,0,0,1,.65319-.6532h1.78444a.58893.58893,0,0,1,.66493.6532v.81657h1.13143v-.75808A1.54441,1.54441,0,0,0,63.8052,107.28369Z"></path>
  <polygon class="cls-1" points="175.136 114.469 175.136 111.739 178.694 111.739 178.694 110.771 175.136 110.771 175.136 108.322 178.985 108.322 178.985 107.33 173.981 107.33 173.981 115.46 179.079 115.46 179.079 114.469 175.136 114.469"></polygon>
  <polygon class="cls-1" points="127.961 115.46 129.115 115.46 129.115 112.054 132.79 112.054 132.79 111.063 129.115 111.063 129.115 108.322 133.081 108.322 133.081 107.33 127.961 107.33 127.961 115.46"></polygon>
  <polygon class="cls-1" points="162.436 113.337 159.042 107.33 157.957 107.33 157.957 115.46 159.03 115.46 159.03 109.453 162.448 115.46 163.497 115.46 163.497 107.33 162.436 107.33 162.436 113.337"></polygon>
  <polygon class="cls-1" points="136.428 111.739 139.985 111.739 139.985 110.771 136.428 110.771 136.428 108.322 140.277 108.322 140.277 107.33 135.273 107.33 135.273 115.46 140.37 115.46 140.37 114.469 136.428 114.469 136.428 111.739"></polygon>
  <path class="cls-1" d="M148.02119,110.51442v-1.46958a1.5445,1.5445,0,0,0-1.71458-1.71458h-3.59252v8.12964h1.15472V112.229h1.84275l1.08486,3.23091h1.23632l-1.15472-3.28922A1.51269,1.51269,0,0,0,148.02119,110.51442Zm-1.15473.05831a.589.589,0,0,1-.65318.66493h-2.34447v-2.91607h2.34447a.58532.58532,0,0,1,.65318.6532Z"></path>
  <path class="cls-1" d="M115.27217,107.28369h-2.11123a1.54432,1.54432,0,0,0-1.71455,1.71457v4.79384a1.54448,1.54448,0,0,0,1.71455,1.71457h2.11123a1.54457,1.54457,0,0,0,1.71457-1.71457v-4.79384A1.54441,1.54441,0,0,0,115.27217,107.28369Zm.55985,6.56672a.5888.5888,0,0,1-.66492.653h-1.91282a.60113.60113,0,0,1-.65316-.688v-4.87562a.58531.58531,0,0,1,.65316-.6532h1.91282a.58421.58421,0,0,1,.66492.6532Z"></path>
  <path class="cls-1" d="M169.84153,107.28369H167.882a1.54433,1.54433,0,0,0-1.71457,1.71457v4.79384a1.54449,1.54449,0,0,0,1.71457,1.71457h1.95958a1.54448,1.54448,0,0,0,1.71455-1.71457V112.754h-1.13126v1.09641a.58879.58879,0,0,1-.66492.653h-1.78462a.58514.58514,0,0,1-.653-.653v-4.91064a.58527.58527,0,0,1,.653-.6532h1.78462a.58892.58892,0,0,1,.66492.6532v.81657h1.13126v-.75808A1.54432,1.54432,0,0,0,169.84153,107.28369Z"></path>
  <polygon class="cls-1" points="151.671 111.739 155.229 111.739 155.229 110.771 151.671 110.771 151.671 108.322 155.52 108.322 155.52 107.33 150.516 107.33 150.516 115.46 155.613 115.46 155.613 114.469 151.671 114.469 151.671 111.739"></polygon>
  <polygon class="cls-1" points="124.113 113.337 120.718 107.33 119.634 107.33 119.634 115.46 120.707 115.46 120.707 109.453 124.124 115.46 125.174 115.46 125.174 107.33 124.113 107.33 124.113 113.337"></polygon>
</svg>
