<?xml version="1.0" encoding="UTF-8"?>
<!-- Generator: Adobe Illustrator 25.1.0, SVG Export Plug-In . SVG Version: 6.00 Build 0)  -->
<svg version="1.1" id="Layer_1" xmlns="http://www.w3.org/2000/svg" xmlns:xlink="http://www.w3.org/1999/xlink" x="0px" y="0px" viewBox="0 0 240 160" style="enable-background:new 0 0 240 160;" xml:space="preserve">
<style type="text/css">
	.st0{fill:#A7AAB2;}
</style>
<g>
	<path class="st0" d="M151.05022,80.24991c1.04877,0,1.9585-0.73372,1.9585-2.01507v-4.90311h-1.09557v2.13573   c-0.22231-0.13912-0.58479-0.27856-0.94731-0.27856c-0.97472,0-1.87532,0.65012-1.87532,2.02442v1.02152   C149.09052,79.51619,149.99112,80.24991,151.05022,80.24991z M150.16782,77.25961c0-0.83559,0.399-1.13289,0.8909-1.13289   c0.28786,0,0.57628,0.10223,0.85443,0.25096v1.8104c0,0.76148-0.37103,1.12375-0.86293,1.12375   c-0.4931,0-0.8824-0.36227-0.8824-1.12375V77.25961z"/>
	<path class="st0" d="M156.03654,80.24991c1.03969,0,1.91232-0.68759,1.91232-1.98721v-2.95316h-1.08638v2.90639   c0,0.72475-0.33405,1.09589-0.82594,1.09589c-0.5016,0-0.83615-0.37114-0.83615-1.09589v-2.90639h-1.07732v2.95316   C154.12308,79.56232,154.97745,80.24991,156.03654,80.24991z"/>
	<polygon class="st0" points="159.47194,76.06174 159.47194,80.12894 160.56746,80.12894 160.56746,76.06174 161.42189,76.06174    161.42189,75.30955 160.56746,75.30955 160.56746,73.79618 159.47194,73.97226 159.47194,75.30955 158.67336,75.30955    158.87746,76.06174  "/>
	<path class="st0" d="M164.15164,80.24986c0.46397,0,0.8824-0.07457,1.39308-0.22262l-0.23203-0.90129   c-0.3716,0.10239-0.73357,0.18588-1.11435,0.18588c-0.65947,0-1.03108-0.32511-1.03108-1.19785v-0.79843   c0-0.86377,0.37161-1.18883,1.03108-1.18883c0.38078,0,0.75188,0.0835,1.11435,0.18573l0.22289-0.90072   c-0.46455-0.13934-0.91997-0.22283-1.38394-0.22283c-1.20668,0-2.07082,0.63144-2.07082,2.10792v0.84498   C162.08083,79.61868,162.94496,80.24986,164.15164,80.24986z"/>
	<path class="st0" d="M167.73639,76.37768c0.27814-0.14873,0.56599-0.25096,0.86356-0.25096   c0.48219,0,0.79854,0.24141,0.79854,1.04939v2.95284h1.08586v-3.0176c0-1.3745-0.80772-1.92245-1.78242-1.92245   c-0.37161,0-0.73357,0.13944-0.96553,0.27856v-2.13573h-1.08644v6.79721h1.08644V76.37768z"/>
	<path class="st0" d="M150.381,88.96909c-0.42693,0-0.84529-0.09309-1.25343-0.22262l-0.21376,0.89106   c0.49248,0.17654,0.96616,0.26943,1.46719,0.26943c1.23521,0,1.82001-0.72412,1.82001-1.45774   c0-1.71783-2.05255-1.36485-2.05255-2.20096c0-0.26009,0.15843-0.46423,0.58536-0.46423c0.37167,0,0.68744,0.0835,1.04027,0.19527   l0.24113-0.91c-0.43668-0.14873-0.84534-0.22335-1.2814-0.22335c-1.04938,0-1.69971,0.59449-1.69971,1.40231   c0,1.66257,2.06224,1.32811,2.06224,2.21917C151.09634,88.75581,150.79878,88.96909,150.381,88.96909z"/>
	<polygon class="st0" points="154.54996,89.78626 154.54996,85.7188 155.40443,85.7188 155.40443,84.96681 154.54996,84.96681    154.54996,83.45324 153.45444,83.62983 153.45444,84.96681 152.65584,84.96681 152.85994,85.7188 153.45444,85.7188    153.45444,89.78626  "/>
	<path class="st0" d="M157.77217,86.8149c-1.07668,0-1.82001,0.50145-1.82001,1.4856c0,0.91021,0.79916,1.60647,1.83885,1.60647   c0.9935,0,1.83821-0.68697,1.83821-1.60647v-1.6622c0-1.09541-0.74213-1.79234-1.85706-1.79234   c-0.51982,0-1.04025,0.13025-1.53215,0.28838l0.23201,0.88166c0.42751-0.12957,0.87263-0.23196,1.30014-0.23196   c0.49252,0,0.76154,0.30653,0.76154,0.85426v0.1766H157.77217z M158.53371,88.3005c0,0.33461-0.27872,0.66859-0.74269,0.66859   c-0.49248,0-0.73357-0.34354-0.73357-0.68686c0-0.35293,0.18578-0.66865,0.70564-0.66865h0.77061V88.3005z"/>
	<path class="st0" d="M161.82089,86.67577c0-0.52947,0.32491-0.89174,0.82651-0.89174c0.19496,0,0.42693,0.0467,0.57571,0.0835   l0.20404-0.90072c-0.22231-0.0741-0.52895-0.12086-0.78888-0.12086c-1.06761,0-1.89468,0.72475-1.89468,1.82982v3.11049h1.0773   V86.67577z"/>
	<polygon class="st0" points="165.6097,83.45324 164.51418,83.62983 164.51418,84.96681 163.71501,84.96681 163.91968,85.7188    164.51418,85.7188 164.51418,89.78626 165.6097,89.78626 165.6097,85.7188 166.46411,85.7188 166.46411,84.96681    165.6097,84.96681  "/>
	<path class="st0" d="M171.0697,84.96681h-1.08696v2.90681c0,0.72407-0.33409,1.09547-0.82599,1.09547   c-0.50154,0-0.83615-0.3714-0.83615-1.09547v-2.90681h-1.07674v2.95294c0,1.30025,0.85443,1.98721,1.91289,1.98721   c1.03973,0,1.91295-0.68697,1.91295-1.98721V84.96681z"/>
	<path class="st0" d="M176.12106,87.8826v-1.02157c0-1.28146-0.91031-2.01508-1.96878-2.01508s-1.95966,0.73361-1.95966,2.01508   v4.88462h1.08696v-2.11704c0.22289,0.13918,0.59454,0.27831,0.96564,0.27831   C175.22046,89.90691,176.12106,89.25679,176.12106,87.8826z M173.27959,88.71861v-1.81082c0-0.76148,0.3808-1.12375,0.8727-1.12375   c0.49246,0,0.87321,0.36227,0.87321,1.12375v0.92847c0,0.83559-0.39954,1.13284-0.88235,1.13284   C173.84621,88.96909,173.56693,88.86713,173.27959,88.71861z"/>
	<path class="st0" d="M150.79878,94.50368c-0.51981,0-1.03963,0.12978-1.53152,0.28785l0.23196,0.88219   c0.42693-0.13026,0.8727-0.23202,1.29956-0.23202c0.49196,0,0.76154,0.30617,0.76154,0.85385v0.17638h-0.76154   c-1.0773,0-1.82001,0.50166-1.82001,1.48576c0,0.91,0.7986,1.60651,1.83827,1.60651c0.99408,0,1.83942-0.68696,1.83942-1.60651   v-1.66215C152.65646,95.2001,151.91315,94.50368,150.79878,94.50368z M151.56032,97.95771   c0,0.33446-0.27814,0.66917-0.74327,0.66917c-0.4919,0-0.73299-0.34411-0.73299-0.68759c0-0.35292,0.18526-0.66838,0.70564-0.66838   h0.77061V97.95771z"/>
	<path class="st0" d="M154.70844,95.90595c0-0.26004,0.15787-0.46424,0.58484-0.46424c0.37103,0,0.68738,0.0835,1.04025,0.19486   l0.2411-0.91022c-0.43663-0.14857-0.84477-0.22267-1.28136-0.22267c-1.04939,0-1.69977,0.59402-1.69977,1.40227   c0,1.66209,2.06226,1.32748,2.06226,2.21922c0,0.28796-0.29752,0.5017-0.71536,0.5017c-0.42686,0-0.84529-0.09309-1.25337-0.22335   l-0.21376,0.89169c0.49242,0.1766,0.96553,0.26901,1.46713,0.26901c1.23523,0,1.82001-0.72433,1.82001-1.45795   C156.76041,96.38845,154.70844,96.74133,154.70844,95.90595z"/>
	<path class="st0" d="M158.67336,95.90595c0-0.26004,0.15787-0.46424,0.58484-0.46424c0.37103,0,0.68738,0.0835,1.04025,0.19486   l0.2411-0.91022c-0.43665-0.14857-0.84477-0.22267-1.28136-0.22267c-1.04939,0-1.69977,0.59402-1.69977,1.40227   c0,1.66209,2.06224,1.32748,2.06224,2.21922c0,0.28796-0.2975,0.5017-0.71535,0.5017c-0.42688,0-0.84529-0.09309-1.25339-0.22335   l-0.21375,0.89169c0.49248,0.1766,0.96553,0.26901,1.46713,0.26901c1.23521,0,1.82001-0.72433,1.82001-1.45795   C160.72533,96.38845,158.67336,96.74133,158.67336,95.90595z"/>
	<path class="st0" d="M163.57593,94.50368c-1.15141,0-1.9967,0.74254-1.9967,2.10812v0.83537   c0,1.3649,0.84535,2.11704,1.9967,2.11704c1.16055,0,2.00584-0.75214,2.00584-2.11704v-0.82651   C165.58177,95.24622,164.73648,94.50368,163.57593,94.50368z M164.50446,97.40111c0,0.82603-0.31577,1.22577-0.92853,1.22577   c-0.6031,0-0.91945-0.39973-0.91945-1.22577v-0.73367c0-0.82671,0.31635-1.22572,0.91945-1.22572   c0.61272,0,0.92853,0.39901,0.92853,1.22572V97.40111z"/>
	<path class="st0" d="M168.70139,98.62688c-0.65894,0-1.03055-0.32516-1.03055-1.19796v-0.7989   c0-0.86393,0.37161-1.18831,1.03055-1.18831c0.38075,0,0.75241,0.0835,1.11436,0.18526l0.22284-0.90061   c-0.46399-0.13912-0.91882-0.22267-1.38338-0.22267c-1.20731,0-2.07082,0.63123-2.07082,2.10812v0.84498   c0,1.47621,0.86357,2.10744,2.07086,2.10744c0.46451,0,0.88235-0.07415,1.39304-0.22267l-0.23254-0.90066   C169.44467,98.54266,169.08214,98.62688,168.70139,98.62688z"/>
	<rect x="171.15294" y="94.6246" class="st0" width="1.08639" height="4.81939"/>
	<path class="st0" d="M171.69159,92.64626c-0.34315,0-0.6498,0.25983-0.6498,0.62236c0,0.34327,0.29698,0.63123,0.6498,0.63123   c0.35341,0,0.65034-0.28796,0.65034-0.63123C172.34193,92.90609,172.03529,92.64626,171.69159,92.64626z"/>
	<path class="st0" d="M175.11786,94.50368c-0.51987,0-1.03973,0.12978-1.53163,0.28785l0.23201,0.88219   c0.42693-0.13026,0.8727-0.23202,1.29962-0.23202c0.4919,0,0.76149,0.30617,0.76149,0.85385v0.17638h-0.76149   c-1.07674,0-1.82001,0.50166-1.82001,1.48576c0,0.91,0.79854,1.60651,1.83879,1.60651c0.99413,0,1.83885-0.68696,1.83885-1.60651   v-1.66215C176.97549,95.2001,176.23222,94.50368,175.11786,94.50368z M175.87935,97.95771   c0,0.33446-0.27815,0.66917-0.74271,0.66917c-0.49242,0-0.73357-0.34411-0.73357-0.68759   c0-0.35292,0.18526-0.66838,0.70622-0.66838h0.77005V97.95771z"/>
	<polygon class="st0" points="179.46352,93.1105 178.368,93.28689 178.368,94.6246 177.56941,94.6246 177.7735,95.37648    178.368,95.37648 178.368,99.44399 179.46352,99.44399 179.46352,95.37648 180.31799,95.37648 180.31799,94.6246    179.46352,94.6246  "/>
	<rect x="181.1445" y="94.6246" class="st0" width="1.08639" height="4.81939"/>
	<path class="st0" d="M181.68315,92.64626c-0.34373,0-0.65044,0.25983-0.65044,0.62236c0,0.34327,0.29756,0.63123,0.65044,0.63123   c0.35278,0,0.64977-0.28796,0.64977-0.63123C182.33292,92.90609,182.02621,92.64626,181.68315,92.64626z"/>
	<path class="st0" d="M185.39728,94.50368c-1.15141,0-1.99677,0.74254-1.99677,2.10812v0.83537   c0,1.3649,0.84535,2.11704,1.99677,2.11704c1.16049,0,2.00578-0.75214,2.00578-2.11704v-0.82651   C187.40306,95.24622,186.55777,94.50368,185.39728,94.50368z M186.32574,97.40111c0,0.82603-0.3152,1.22577-0.92847,1.22577   c-0.60306,0-0.91945-0.39973-0.91945-1.22577v-0.73367c0-0.82671,0.31635-1.22572,0.91945-1.22572   c0.61327,0,0.92847,0.39901,0.92847,1.22572V97.40111z"/>
	<path class="st0" d="M190.44916,94.50368c-1.0591,0-1.92261,0.68686-1.92261,1.98721h-0.00006v2.9531h1.07732v-2.90681   c0-0.72433,0.34369-1.09547,0.84529-1.09547c0.49194,0,0.81685,0.37114,0.81685,1.09547v2.90681h1.08644v-2.9531   C192.35239,95.19054,191.49791,94.50368,190.44916,94.50368z"/>
	<path class="st0" d="M122.56218,67.77805c-1.4866,0-2.92413,0.20947-4.28815,0.5934l-0.26051-0.47964   c-3.74428-7.89341-13.17777-11.2571-21.07139-7.51355c-7.89336,3.74397-11.25705,13.17772-7.5135,21.07108l2.05797,4.38522   c1.87569,3.9551,0.19016,8.68093-3.76421,10.55682c-3.79626,1.8006-8.2968,0.31327-10.31073-3.30717   c1.1941-2.22428,1.87251-4.767,1.87251-7.46831c0-0.32574-0.03225-34.66846-0.03225-34.66846h-7.86648v20.9774   c-2.32923-1.35044-5.03294-2.12759-7.91919-2.12759c-8.73661,0-15.81865,7.08204-15.81865,15.81865   c0,8.73598,7.08203,15.81792,15.81865,15.81792c3.09557,0,5.98166-0.89278,8.42017-2.42958   c4.4612,5.68885,12.412,7.74734,19.21861,4.51881c7.89341-3.7435,11.25726-13.17751,7.5135-21.07108l-2.05776-4.38527   c-1.87543-3.95438-0.19037-8.68047,3.76421-10.5563c3.95458-1.87563,8.68088-0.19016,10.55615,3.76421l0.5865,1.05028   c-2.91495,2.86913-4.72358,6.85847-4.72358,11.27155c0,8.73635,7.08172,15.8186,15.81812,15.8186   c2.90013,0,5.61563-0.78439,7.95207-2.14642v2.14642h7.86658V83.88585h-0.00742c0.00168-0.09686,0.00742-0.19214,0.00742-0.28941   C138.38083,74.86029,131.29796,67.77805,122.56218,67.77805z M63.46626,93.54072c-4.37718,0-7.92524-3.54807-7.92524-7.92483   c0-4.37697,3.54806-7.92498,7.92524-7.92498c4.30882,0,7.8121,3.43957,7.91919,7.72282v0.25675h0.00397   C71.35987,90.02161,67.8247,93.54072,63.46626,93.54072z M122.56218,91.52116c-4.37708,0-7.92471-3.54801-7.92471-7.92472   c0-4.37702,3.54764-7.92456,7.92471-7.92456c4.37697,0,7.92473,3.54759,7.92473,7.92456   C130.48691,87.97314,126.93915,91.52116,122.56218,91.52116z"/>
</g>
</svg>