<svg xmlns="http://www.w3.org/2000/svg" viewBox="0 0 400 225"><title>kpmg</title><path d="M322.05714,138.52185H309.17139l2.12738-8.5199H285.482l-2.12231,8.5199h-12.4748v-1.74978c.19318-.96036.35887-1.96674.59981-3.04328,2.26841-9.188,8.302-18.26751,18.73567-18.26751,4.13007,0,8.23285,1.57374,7.67064,7.28534H313.2502c.6049-2.66481,1.62161-7.205-1.27646-11.37779-3.274-4.53506-9.86808-6.3549-18.42131-6.3549-6.08484,0-14.98066.974-22.66758,5.99094V64.659h51.17228ZM291.8625,151.006a48.9818,48.9818,0,0,1-8.60529.88c-7.37676,0-12.50727-3.4278-12.615-11.42652h23.83468Zm-29.489-42.19177-.02563,10.58741a42.69563,42.69563,0,0,0-6.81624,14.64155,29.62308,29.62308,0,0,0-.81505,4.47862h-7.51682l6.42663-30.49535-21.62952-.02056-19.36025,30.51593H211.227V64.659h51.14657ZM233.8116,138.52185h-7.69453L237.764,120.198Zm-31.05326-30.56718H189.95719l-8.78131,30.56717H167.60143c6.9171-2.558,11.12573-7.44335,12.42784-14.69361,1.07313-5.63295.5622-9.341-1.73438-12.11593-3.44319-4.13015-10.35339-3.77644-16.493-3.77644-1.07306,0-10.15339.01881-10.15339.01881V64.659h51.10982Zm-8.18666,30.56718,5.386-19.12018.18968,19.12019Zm-37.22452-7.26907h-.01531c-.49553.02564-.99455.06833-1.56525.06833-.74672,0-1.32939.02738-1.8796.02738l-3.274-.02738,1.51389-5.59612.716-2.77846,1.71732-6.50958c.76036,0,1.50708-.02729,2.21967-.02729H159.314c4.32482,0,7.06225.246,8.05682,1.637.76377,1.044.66466,2.8502-.23587,5.59533-1.54294,4.72979-3.49612,7.13065-9.78777,7.61079m-14.216-20.588-.80139,2.6537-7.31692,24.34726-.2888.85607H110.64247l-1.8796-3.966L134.724,108.02649H118.04487L97.744,129.89434l6.57528-21.86784H92.02133V64.659h51.10982ZM268.942,62.69563v49.70354a33.67956,33.67956,0,0,0-4.588,4.42228V62.69563H209.29776v45.259h-4.56069v-45.259H149.67057V108.0265h-4.55552V62.69563H90.04768V114.3625L76,161.20733H88.356l6.20626-20.7478H96.3479l10.24744,20.7478H121.5256l-9.94324-20.7478h22.56241l-6.26086,20.7478h13.50429l6.17721-20.68963h2.96385v-.05818h30.06219l-5.96189,20.68631h13.61374l5.77818-20.68631h6.12585l.164,20.68631h11.42136l13.10787-20.68631h8.58314l-4.42745,20.68631h13.40526l4.34713-20.68631h7.75262c-.30761,6.413,1.33114,12.23648,5.5842,16.15807,5.19288,4.77427,13.1686,5.68678,19.07407,5.68678a114.05949,114.05949,0,0,0,24.89574-3.06035l4.6444-18.78449H324V62.69563Z" fill="#A7AAB2" /></svg>