<?xml version="1.0" encoding="utf-8"?>
<!-- Generator: Adobe Illustrator 25.2.0, SVG Export Plug-In . SVG Version: 6.00 Build 0)  -->
<svg version="1.1" id="Layer_1" xmlns="http://www.w3.org/2000/svg" xmlns:xlink="http://www.w3.org/1999/xlink" x="0px" y="0px"
	 viewBox="0 0 400 225" style="enable-background:new 0 0 400 225;" xml:space="preserve">
<style type="text/css">
	.st0{fill:#A7AAB2;}
</style>
<path class="st0" d="M289.57162,129.33038c0,0.33838,0,0.69843,0,1.0368c0,0.73798-0.5976,1.33203-1.33197,1.33203h-10.2204
	c-1.2276,0-2.32562-0.8208-2.6748-1.99446l-1.51202-5.17316c0,0-4.9032,7.81201-13.104,7.81201
	c-8.11078,0-12.66479-5.50806-12.66479-15.57001l-0.02155-15.50525c-0.0036-2.35437-1.91162-4.26239-4.26599-4.26239h-0.0108
	c-0.73804,0-1.33203-0.5976-1.33203-1.33203v-1.33917c0-0.6084,0.4104-1.13757,1.00079-1.28882l13.62244-3.4884
	c0.83881-0.216,1.65961,0.4212,1.65961,1.28882l0.01801,26.42041c0,4.22278,2.18518,7.62482,6.26758,7.62482
	c4.88159,0,8.21521-3.75842,8.21521-3.75842l0.05756-19.8504c0.0072-2.35797-1.90436-4.27679-4.26599-4.27679
	c-0.73798,0-1.33197-0.5976-1.33197-1.33203v-1.33917c0.00354-0.6084,0.414-1.13757,1.00439-1.28882l13.61157-3.45959
	c0.84241-0.216,1.65961,0.4212,1.65961,1.28882l-0.0036,32.84637c0,2.36163,1.91522,4.27686,4.27679,4.27686h0.0144
	C288.97403,127.99841,289.57162,128.59601,289.57162,129.33038z M335.61557,110.12079c0,13.0896-7.44482,22.23004-18.10077,22.23004
	c-6.66003,0-10.86841-6.11279-10.86841-6.11279v9.33838c-0.0036,2.36523,1.91516,4.2804,4.27679,4.27679
	c0.73804,0,1.33563,0.59399,1.33563,1.33203v1.04041c0.0036,0.73798-0.59406,1.33557-1.33203,1.33557h-19.25641
	c-0.73438,0-1.33197-0.5976-1.33197-1.33557c0-0.34204,0-0.70563,0-1.04401c0-0.73804,0.5976-1.33203,1.33197-1.33203h0.0108
	c2.36163,0,4.27679-1.91516,4.27679-4.27679v-34.28638c0-2.35443-1.90076-4.26245-4.25519-4.27325h-0.03961
	c-0.73438,0-1.32837-0.5976-1.32837-1.33197v-1.34283c0-0.6084,0.4104-1.14117,1.00079-1.29236l13.64404-3.51721
	c0.84595-0.216,1.66681,0.4212,1.66681,1.29242v6.38635c0,0,4.95355-7.71118,12.71875-7.71118
	C328.93405,89.4964,335.61563,97.97443,335.61557,110.12079z M324.95242,110.49878c0-7.1676-2.21759-13.9068-9.43921-13.9068
	c-5.33881,0-8.86676,4.63684-8.86676,4.63684l-0.00366,17.92798l0.00726,0.04321c0,0,2.57037,6.08759,8.43115,6.08759
	C321.91403,125.2876,324.95242,117.75281,324.95242,110.49878z M240.55038,127.99841h-0.09717
	c-2.2644,0-4.1076-1.8432-4.1076-4.1076V112.1656c0.0036-1.99438,0.0072-5.23077,0.0072-7.43042
	c0-11.41559-5.40723-15.29639-11.2356-15.29639c-8.32318,0-13.87799,7.1532-13.87799,7.1532l-0.03601,0.03241v-5.80322
	c0-0.87115-0.8208-1.50836-1.66681-1.29236l-13.64398,3.51715c-0.59039,0.15125-1.00079,0.68402-1.00079,1.29242v1.34283
	c0,0.73438,0.59399,1.33197,1.32837,1.33197h0.03601c2.35443,0.0108,4.25879,1.91882,4.25879,4.27319v22.43518
	c0,2.36163-1.91516,4.27686-4.27679,4.27686h-0.0108c-0.73438,0-1.33197,0.59399-1.33197,1.33196c0,0.33838,0,0.70203,0,1.04401
	c0,0.73799,0.5976,1.33563,1.33197,1.33563h19.25641c0.73804,0,1.33563-0.5976,1.33203-1.33563v-1.04041
	c0-0.73798-0.5976-1.33197-1.33563-1.33197c-2.36157,0.0036-4.2804-1.91162-4.27679-4.27686v-23.03277l0.03601-0.03601
	c0,0,3.51361-3.64679,7.89117-3.64679c4.086,0,6.52679,2.8548,6.52679,7.63562v23.41797l0.0144,0.17279
	c0.16559,1.94403,1.82159,3.4632,3.77283,3.4632h11.10236c0.77759,0,1.41479-0.63361,1.41479-1.41118v-0.87477
	c0.00366-0.37799-0.14398-0.73438-0.41034-1.00079C241.28482,128.146,240.92844,127.99841,240.55038,127.99841z
	 M150.32724,110.12079c0,13.0896-7.44482,22.23004-18.10083,22.23004c-6.65997,0-10.86835-6.11279-10.86835-6.11279v9.33838
	c-0.0036,2.36523,1.91516,4.2804,4.27679,4.27679c0.73798,0,1.33557,0.59399,1.33557,1.33203v1.04041
	c0.0036,0.73798-0.59399,1.33557-1.33197,1.33557h-19.25641c-0.73444,0-1.33203-0.5976-1.33203-1.33557
	c0-0.34204,0-0.70563,0-1.04401c0-0.73804,0.5976-1.33203,1.33203-1.33203h0.0108c2.36157,0,4.27679-1.91516,4.27679-4.27679
	v-34.28638c0-2.35443-1.90082-4.26245-4.25519-4.27325h-0.03601c-0.73444,0-1.32843-0.5976-1.32843-1.33197v-1.34283
	c0-0.6084,0.4104-1.14117,1.00079-1.29236l13.64404-3.51721c0.84595-0.216,1.66675,0.4212,1.66675,1.29242v6.38635
	c0,0,4.95361-7.71118,12.71881-7.71118C143.6492,89.4964,150.33084,97.97443,150.32724,110.12079z M139.67123,110.49878
	c0-7.1676-2.21759-13.9068-9.43921-13.9068c-5.33881,0-8.86682,4.63684-8.86682,4.63684l-0.0036,17.92798l0.0072,0.04321
	c0,0,2.57043,6.08759,8.43121,6.08759C136.63284,125.2876,139.67123,117.75281,139.67123,110.49878z M103.7756,110.91638
	c0,11.83679-8.82001,21.43085-19.69556,21.43085c-10.87561,0-19.69562-9.59406-19.69562-21.43085S73.20084,89.4856,84.08005,89.4856
	S103.77921,99.07959,103.7756,110.91638z M93.00443,111.12518c0-8.81641-3.99597-15.9624-8.92438-15.9624
	s-8.92444,7.146-8.92444,15.9624s3.99603,15.9624,8.92444,15.9624S93.00443,119.94159,93.00443,111.12518z M192.07285,119.13519
	c0.55798,0.4176,0.71997,1.15918,0.38159,1.76758c-1.88281,3.44885-7.38361,11.47681-17.7876,11.47681c0,0-0.0036,0-0.0072,0
	c-11.94116-0.0036-19.08356-10.67041-19.08356-20.97717c0-15.05157,9.76678-21.8808,18.70917-21.8808c0.0036,0,0.0072,0,0.0108,0
	c12.41998,0,16.1532,14.64478,16.50598,16.81561c0.11523,0.70557-0.34558,1.37878-1.04761,1.53717l-24.50519,5.49719
	l0.05402,0.16559c0.0072,0.02521,0.79559,2.4516,2.82959,4.83844c1.88281,2.20679,5.23798,4.83838,10.55157,4.84198
	c0.0036,0,0.0036,0,0.0072,0c5.18402,0,8.84161-2.92322,10.56244-4.66559c0.49677-0.50043,1.29596-0.55798,1.86475-0.13318
	L192.07285,119.13519z M164.86044,107.8924l14.75281-3.0636v-0.11877c0-1.29242-0.2088-2.75043-0.57599-3.99963
	c-0.50043-1.69556-1.26721-3.03119-2.28241-3.97437c-1.12323-1.04401-2.52722-1.57324-4.17242-1.57324c-0.0036,0-0.0036,0-0.0036,0
	c-5.33521,0-7.91998,5.68805-8.04962,9.72723c-0.07916,2.37958,0.2052,2.8548,0.26282,2.92682L164.86044,107.8924z"/>
</svg>
