<?xml version="1.0" encoding="UTF-8"?>
<svg xmlns="http://www.w3.org/2000/svg" xmlns:xlink="http://www.w3.org/1999/xlink" viewBox="0 0 128 128">
  <defs>
    <linearGradient id="a" x1="70.88881" y1="20" x2="70.88881" y2="94.22239" gradientUnits="userSpaceOnUse">
      <stop offset="0" stop-color="#f42"></stop>
      <stop offset="0.75" stop-color="#c09"></stop>
    </linearGradient>
  </defs>
  <title>partner-startups</title>
  <g opacity="0.15">
    <circle cx="64" cy="64" r="60" fill="#0cc"></circle>
  </g>
  <path d="M93.84,82.83986c27.53869-27.53869,7.11693-47.95923,3.19812-51.878S72.69883,6.62127,45.16015,34.16c-14.294,14.294-11.59546,22.76742-10.28267,29.03035l29.9322,29.9322C71.07263,94.43531,79.546,97.13385,93.84,82.83986Z" fill="url(#a)"></path>
  <path d="M34.25319,83.76957l4.98861,4.98861,4.98863,4.98863c6.0715-6.0715,14.31629-1.93707,20.57925-.6243l-29.9322-29.9322C36.19027,69.45328,40.3247,77.69807,34.25319,83.76957Z" fill="#fba"></path>
  <path d="M54.56543,82.87826l-4.72185-4.72185-4.72183-4.72183s-20.6917,20.17226-31.95894,28.75964a2.93479,2.93479,0,0,0-.82706,3.70095,23.19216,23.19216,0,0,0,4.22838,5.54069,23.19207,23.19207,0,0,0,5.5407,4.22839,2.9348,2.9348,0,0,0,3.701-.82706C34.39315,103.56992,54.56543,82.87826,54.56543,82.87826Z" fill="#fda"></path>
  <path d="M54.56543,82.87826c-3.19322,3.19322-7.89588,3.6678-10.50368,1.06s-2.13323-7.31046,1.06-10.50368Z" fill="#fec"></path>
  <circle cx="84" cy="62" r="10.60463" fill="#609" opacity="0.5"></circle>
  <circle cx="84" cy="54" r="10.60463" fill="#fff"></circle>
</svg>
