<?xml version="1.0" encoding="UTF-8"?>
<svg xmlns="http://www.w3.org/2000/svg" xmlns:xlink="http://www.w3.org/1999/xlink" viewBox="0 0 128 128">
  <defs>
    <linearGradient id="a" x1="28" y1="82.02171" x2="120" y2="82.02171" gradientUnits="userSpaceOnUse">
      <stop offset="0" stop-color="#f42"></stop>
      <stop offset="0.25" stop-color="#c09"></stop>
      <stop offset="0.75" stop-color="#f42"></stop>
      <stop offset="1" stop-color="#c09"></stop>
    </linearGradient>
    <linearGradient id="b" x1="8" y1="58.5" x2="104" y2="58.5" gradientUnits="userSpaceOnUse">
      <stop offset="0" stop-color="#c09"></stop>
      <stop offset="0.25" stop-color="#609"></stop>
      <stop offset="0.75" stop-color="#c60099"></stop>
      <stop offset="1" stop-color="#609"></stop>
    </linearGradient>
    <linearGradient id="c" x1="33.99956" y1="58.49979" x2="77.99957" y2="58.49979" gradientUnits="userSpaceOnUse">
      <stop offset="0" stop-color="#fba"></stop>
      <stop offset="1" stop-color="#fda"></stop>
    </linearGradient>
    <linearGradient id="d" x1="10" y1="14.5" x2="10" y2="22.5" gradientUnits="userSpaceOnUse">
      <stop offset="0" stop-color="#f42"></stop>
      <stop offset="0.75" stop-color="#f42"></stop>
    </linearGradient>
  </defs>
  <title>partner-governments</title>
  <g opacity="0.15">
    <circle cx="64" cy="64" r="60" fill="#0cc"></circle>
  </g>
  <rect x="27.99374" y="39.35505" width="4" height="88.64495" fill="#fba"></rect>
  <path d="M120,112.68838c-30.66667,18.4-61.33333-18.4-92,0V51.35505c30.66667-18.4,61.33333,18.4,92,0Z" fill="url(#a)"></path>
  <rect x="8" y="26.5" width="4" height="101.5" fill="#fba"></rect>
  <path d="M104,90.5c-32,19.2-64-19.2-96,0v-64c32-19.2,64,19.2,96,0Z" fill="url(#b)"></path>
  <path d="M55.99959,36.49978c-12.13069-3.96645-22,4.49692-22,16.78654.00009,11.9721,9.86914,23.247,22,27.21346s21.99992-4.49673,22-16.78639C77.99944,51.74126,68.13033,40.46629,55.99959,36.49978Zm1,14.268a30.50558,30.50558,0,0,0,8.72127,1.19514,37.17449,37.17449,0,0,1,1.25089,8.65652c-3.32406-.8409-6.64809-1.82387-9.97216-2.8198Zm0-1.99939V38.89175c3.36154,1.56676,6.2916,5.71521,8.096,11.009A29.22024,29.22024,0,0,1,56.99957,48.7684Zm-2-10.47639v9.87665A47.43891,47.43891,0,0,1,46.90369,44.639C48.7081,40.301,51.63791,37.83346,54.99956,38.292Zm0,11.876v7.03186c-3.324-.99592-6.64809-1.97889-9.97216-2.81977a29.53117,29.53117,0,0,1,1.251-8.01095A51.1622,51.1622,0,0,0,54.99956,50.16805Zm-11.97107,3.7246c-2.32607-.54495-4.65218-1.00764-6.97824-1.34384A16.65975,16.65975,0,0,1,40.0587,42.21687a38.5367,38.5367,0,0,0,4.314,3.04963A31.44279,31.44279,0,0,0,43.02849,53.89265Zm0,2a38.99452,38.99452,0,0,0,1.34427,9.27395,15.96656,15.96656,0,0,0-4.31378,1.107,23.49827,23.49827,0,0,1-4.00873-11.72475C38.37631,54.885,40.70242,55.3477,43.02849,55.89265Zm1.99891.48749c3.32407.84088,6.64811,1.82385,9.97216,2.81977v7.03186a30.49428,30.49428,0,0,0-8.72113-1.19465A37.175,37.175,0,0,1,45.0274,56.38014Zm9.97216,11.851V78.1078C51.63812,76.541,48.70819,72.393,46.90382,67.0994A29.2054,29.2054,0,0,1,54.99956,68.23116Zm2,10.47639V68.8309a47.43239,47.43239,0,0,1,8.09583,3.52987C63.291,76.69872,60.3611,79.16608,56.99957,78.70755Zm0-11.876V59.79965c3.32407.99592,6.6481,1.97891,9.97216,2.8198a29.53335,29.53335,0,0,1-1.251,8.01088A51.14838,51.14838,0,0,0,56.99957,66.83151ZM68.97064,63.107c2.32608.545,4.65219,1.00768,6.97829,1.34391a16.66109,16.66109,0,0,1-4.00845,10.33186,38.529,38.529,0,0,0-4.314-3.04969A31.44658,31.44658,0,0,0,68.97064,63.107Zm0-2a38.99079,38.99079,0,0,0-1.34413-9.27332,15.9557,15.9557,0,0,0,4.31424-1.10673,23.49829,23.49829,0,0,1,4.00818,11.724C73.62283,62.11464,71.29672,61.65193,68.97064,61.107Zm1.67359-12.19821a14.99665,14.99665,0,0,1-3.646.869,28.38945,28.38945,0,0,0-4.147-8.02969A31.76253,31.76253,0,0,1,70.64423,48.90875ZM49.148,37.72086a13.55858,13.55858,0,0,0-4.14688,5.80387,34.99463,34.99463,0,0,1-3.64581-2.58514A13.50052,13.50052,0,0,1,49.148,37.72086ZM41.35564,68.09177a15.0066,15.0066,0,0,1,3.64563-.86905A28.3805,28.3805,0,0,0,49.148,75.2515,31.76087,31.76087,0,0,1,41.35564,68.09177ZM62.85121,79.27871A13.55818,13.55818,0,0,0,66.998,73.475a35.04238,35.04238,0,0,1,3.64586,2.585A13.5,13.5,0,0,1,62.85121,79.27871Z" fill="url(#c)"></path>
  <circle cx="10" cy="18.5" r="4" fill="url(#d)"></circle>
</svg>
