<?xml version="1.0" encoding="utf-8"?>
<!-- Generator: Adobe Illustrator 25.2.2, SVG Export Plug-In . SVG Version: 6.00 Build 0)  -->
<svg version="1.1" id="Layer_1" xmlns="http://www.w3.org/2000/svg" xmlns:xlink="http://www.w3.org/1999/xlink" x="0px" y="0px"
	 viewBox="0 0 400 225" style="enable-background:new 0 0 400 225;" xml:space="preserve">
<style type="text/css">
	.st0{fill:#A7AAB2;}
</style>
<path class="st0" d="M113.56079,100.17979c-0.07265,1.41891,0.53651,2.7872,1.63939,3.68283
	c1.29893,1.09295,3.61945,1.97998,6.89045,2.79571c4.44311,1.23556,7.92002,2.8671,10.44645,4.98962
	c2.66118,2.32058,4.03127,5.54404,4.03127,9.62279c0.0127,2.40718-0.70227,4.76208-2.05121,6.75577
	c-1.37332,2.0237-3.29706,3.6122-5.54405,4.57777c-2.48789,1.1554-5.20949,1.7193-7.9517,1.64738
	c-3.33787-0.02356-6.61845-0.86958-9.55148-2.46312c-3.04729-1.58305-5.68739-3.84912-7.7141-6.62114
	c-0.54839-0.68159-0.4405-1.67867,0.2411-2.22713c0.00932-0.00745,0.01873-0.01484,0.02819-0.02216l3.69073-3.27885
	c0.2985-0.27151,0.68945-0.41881,1.09296-0.41183h0.26929c0.47723,0.07433,0.9004,0.34778,1.16418,0.75236
	c1.24542,2.01262,2.95329,3.69881,4.98169,4.91831c1.93843,1.16116,4.15569,1.77434,6.41524,1.77413
	c2.45519,0,4.30057-0.48313,5.45683-1.50485c1.13618-0.96001,1.74541-2.40504,1.63945-3.88868
	c0.12241-1.59474-0.53952-3.14907-1.77406-4.16595c-1.43616-1.09295-3.75674-2.11727-6.96168-3.07294
	c-9.50401-2.32058-14.25603-6.82706-14.25603-13.46399c0-4.09465,1.36224-7.30227,4.09466-9.55154
	c2.73241-2.24928,6.28054-3.27885,10.78703-3.27885c6.17863-0.18282,12.06992,2.60968,15.84003,7.50812
	c0.55812,0.70556,0.46768,1.72424-0.20592,2.32058l-3.58775,3.00956c-0.29547,0.27654-0.68851,0.42465-1.09296,0.4119h-0.2059
	c-0.46736-0.04451-0.89087-0.294-1.15634-0.68112c-1.09811-1.59891-2.54401-2.92839-4.22932-3.88874
	c-1.67175-0.84104-3.5223-1.26496-5.39352-1.23555c-1.8586-0.07378-3.69477,0.4268-5.25883,1.43354
	C114.19204,97.44296,113.5279,98.77405,113.56079,100.17979z M168.65231,125.93568l-3.21555-2.24928
	c-0.72502-0.48514-1.70035-0.3375-2.24928,0.34053c-0.77336,1.00996-1.75009,1.84638-2.86702,2.45518
	c-1.23018,0.59935-2.5939,0.87213-3.95998,0.79204c-1.49664,0.0723-2.9776-0.3326-4.22932-1.15633
	c-1.28914-0.8295-2.30984-2.0153-2.93832-3.41353c-1.43382-3.26294-1.43382-6.97758,0-10.24052
	c0.63063-1.37809,1.65248-2.54033,2.93832-3.3423c1.28081-0.75813,2.74094-1.16009,4.22932-1.16418
	c2.569,0.00645,4.94907,1.35103,6.28056,3.54815c0.24982,0.37458,0.64722,0.62513,1.09294,0.68904h0.2693
	c0.37041-0.01021,0.72913-0.13159,1.02957-0.34852l3.00169-2.37597c0.69362-0.57828,0.81204-1.59884,0.26923-2.32058
	c-1.42508-1.83933-3.18526-3.39252-5.18759-4.57772c-2.08252-1.16773-4.44002-1.75581-6.827-1.70283
	c-2.85199-0.0043-5.65382,0.75014-8.11801,2.1859c-2.3941,1.43456-4.33487,3.51538-5.59943,6.00341
	c-1.37541,2.62833-2.05693,5.56432-1.98006,8.52982c-0.06929,2.98747,0.6115,5.94466,1.98006,8.60114
	c1.26045,2.49292,3.20204,4.57732,5.59943,6.01126c2.46393,1.49826,5.30644,2.257,8.18924,2.1859
	c2.4895,0.00873,4.94571-0.57202,7.16766-1.69492c2.11748-1.03951,3.98253-2.52884,5.46475-4.36388
	c0.00281,0,0.00563-0.00014,0.00845-0.00047c0.03471-0.00443,0.05928-0.03612,0.05492-0.07083
	c0.00087-0.00127,0.00182-0.00255,0.00269-0.00383C169.58641,127.50034,169.40433,126.46311,168.65231,125.93568z
	 M202.65288,103.45872v28.26646c-0.01289,0.89879-0.74068,1.623-1.63947,1.63153h-4.09465
	c-0.89879-0.00853-1.62657-0.73274-1.63945-1.63153v-0.0713c-0.61775,0.4119-1.22757,0.79204-1.84531,1.16425
	c-1.97328,1.05939-4.18369,1.59904-6.42316,1.56816c-5.76541,0.12172-11.09332-3.06206-13.71744-8.19717
	c-2.66931-5.39841-2.66931-11.73263,0-17.13097c2.57597-5.11469,7.8571-8.29874,13.58282-8.18929
	c2.24934-0.01456,4.47089,0.4981,6.48647,1.49693c0.67648,0.34604,1.31598,0.76001,1.90868,1.23548v-0.14253
	c0.01283-0.90013,0.73941-1.6267,1.63947-1.63946h4.10257C201.91348,101.83202,202.64012,102.55859,202.65288,103.45872z
	 M194.10719,112.54292c-0.64734-1.36674-1.66194-2.52664-2.93039-3.35015c-1.26276-0.86414-2.77196-1.29491-4.30057-1.22763v0.00006
	c-1.4698-0.00604-2.91222,0.39713-4.16595,1.16418c-1.25053,0.84287-2.26257,1.99401-2.93832,3.3423
	c-0.73444,1.60455-1.10498,3.3517-1.08504,5.11629c-0.04921,1.79025,0.32246,3.56708,1.08504,5.1876
	c0.62573,1.39999,1.64703,2.58646,2.93832,3.41347c1.22601,0.8289,2.6879,1.23743,4.16595,1.16425
	c1.51062-0.00584,2.9933-0.4072,4.30057-1.16425c1.2908-0.82534,2.31003-2.01255,2.93039-3.41347
	C195.54558,119.51634,195.54558,115.80215,194.10719,112.54292z M213.77252,87.98297h-4.09465
	c-0.0376-0.00134-0.07527-0.00134-0.11287,0c-0.87428,0.03122-1.55775,0.76518-1.52654,1.63947v42.11858
	c0.01276,0.90007,0.73933,1.62671,1.6394,1.63947h4.09465c0.90013-0.01276,1.62669-0.7394,1.63945-1.63947V89.62244
	C215.39922,88.72237,214.67265,87.9958,213.77252,87.98297z M295.54654,101.93803c-0.22055-0.07452-0.44922-0.1224-0.68112-0.14254
	h-3.89667c-0.72287,0.00853-1.35995,0.47682-1.58398,1.16425l-5.59943,17.42397l-5.54398-17.42397
	c-0.19418-0.70844-0.84991-1.19037-1.58401-1.16425h-4.03128c-0.72293,0.00852-1.36002,0.47681-1.58398,1.16425l-5.74997,17.6378
	l-5.67075-17.61403c-0.19415-0.70845-0.84988-1.19037-1.58392-1.16425h-4.33232c-0.3071,0.00315-0.60989,0.07345-0.88704,0.2059
	c-0.70549,0.3839-1.0381,1.21542-0.79196,1.97999l9.35349,28.26653c0.19727,0.70522,0.8522,1.18332,1.58401,1.15627h4.09464
	c0.71423,0.03497,1.36325-0.41284,1.58401-1.09296l5.79749-16.92506l5.39352,16.86175
	c0.19717,0.70522,0.85211,1.18332,1.58392,1.15627l4.22141-0.00786c0.72162-0.00504,1.35938-0.47058,1.58401-1.15633
	l9.28226-28.28237C296.7713,103.15431,296.35281,102.2621,295.54654,101.93803z M328.866,103.47449v28.26653
	c-0.01291,0.89873-0.7406,1.62302-1.63947,1.63147h-4.09467c-0.89877-0.00845-1.62656-0.73274-1.63943-1.63147v-0.0713
	c-0.59131,0.42459-1.20749,0.81339-1.84531,1.16426c-2.00073,1.04535-4.22928,1.57869-6.48648,1.55231
	c-5.76245,0.11031-11.08481-3.07018-13.7175-8.19723c-2.66071-5.40037-2.66071-11.73054,0-17.1309
	c2.58865-5.13692,7.90341-8.32452,13.65411-8.1893c2.23431,0.00712,4.43433,0.55035,6.41516,1.584
	c0.67569,0.34435,1.31519,0.75558,1.90875,1.22763v-0.13468c0.0072-0.91443,0.7262-1.66464,1.63947-1.7107h4.16589
	C328.12665,101.84785,328.85324,102.57443,328.866,103.47449z M320.26486,112.54292
	c-0.63049-1.38017-1.65216-2.54503-2.93832-3.35015c-1.23651-0.86301-2.72287-1.29443-4.22928-1.22757
	c-1.46979-0.00604-2.9122,0.39713-4.16595,1.16418c-1.25226,0.84092-2.26471,1.99261-2.93826,3.3423
	c-0.77014,1.5928-1.14511,3.3478-1.09302,5.11629c-0.04639,1.79086,0.32797,3.56768,1.09302,5.1876
	c0.62567,1.3999,1.647,2.58646,2.93826,3.41347c1.22601,0.8289,2.6879,1.23743,4.16595,1.16425
	c1.48935,0.00336,2.95148-0.39913,4.22928-1.16425c1.29126-0.82701,2.31259-2.01357,2.93832-3.41347
	C321.70325,119.51634,321.70325,115.80215,320.26486,112.54292z M248.60474,108.78093
	c1.3282,2.44909,2.00711,5.19749,1.97206,7.98333c0.01685,0.63694-0.0043,1.27436-0.06339,1.90875
	c-0.07022,0.85246-0.78404,1.50768-1.63939,1.50478h-21.384c0.34039,1.73688,1.11713,3.35854,2.2572,4.71239
	c1.45464,1.6629,3.59099,2.56759,5.79742,2.45518c1.79999,0.05876,3.58528-0.34193,5.18761-1.16418
	c1.02669-0.62016,1.92909-1.42582,2.6611-2.37602c0.60385-0.74336,1.68022-0.89221,2.46312-0.34053l2.79579,2.03545
	c0,0.03934,0.03189,0.07123,0.07123,0.07123c0.00089,0.00067,0.00182,0.00141,0.00269,0.00208
	c0.80789,0.6213,0.95915,1.77991,0.33792,2.58779c-1.35648,1.75206-3.05045,3.2144-4.98169,4.30057
	c-2.63298,1.37071-5.5703,2.0519-8.53777,1.98c-2.87387,0.00717-5.69873-0.74411-8.1893-2.17805
	c-2.379-1.4565-4.31514-3.53499-5.59944-6.01126c-1.36385-2.65821-2.0443-5.61414-1.97998-8.60114
	c-0.02625-2.96008,0.65245-5.88396,1.97998-8.52982c1.24005-2.4893,3.1629-4.57423,5.54398-6.01126
	c2.43814-1.44288,5.22159-2.19826,8.0547-2.1859C240.88762,100.87925,245.98975,103.90459,248.60474,108.78093z
	 M242.78354,113.42995c-0.31824-1.41891-1.02904-2.71978-2.05128-3.75406c-1.22763-1.23555-3.00171-1.77407-5.25098-1.77407
	c-1.95938-0.07117-3.86156,0.66796-5.25891,2.04336c-1.02151,0.96793-1.80261,2.16133-2.28098,3.48476
	C227.94139,113.42994,242.78354,113.42994,242.78354,113.42995z M362.24081,102.57169
	c-0.32999-0.41854-0.82935-0.66823-1.36215-0.68112h-3.88876c-0.70367,0.00014-1.33411,0.43513-1.58398,1.09295l-7.9834,20.59197
	l-7.57941-20.68704c-0.27917-0.62412-0.90027-1.02481-1.58401-1.02165h-4.30057c-0.55444-0.00497-1.07114,0.28043-1.36224,0.75236
	c-0.32053,0.46702-0.37457,1.06731-0.14255,1.584l11.11966,29.35947c-0.1825,1.0849-0.76807,2.06082-1.6394,2.73241
	c-1.0217,0.68112-3.00171,0.75237-4.09464,0.79198c-0.94833,0.04619-1.69553,0.82472-1.70285,1.77406v2.79579
	c-0.00879,0.97102,0.77121,1.76527,1.74225,1.77408c0.01062,0.00012,0.02121,0.00012,0.03183,0
	c1.70282,0,4.50647,0.13461,6.69244-0.95834c4.49857-2.37598,5.1163-5.32222,6.41516-8.66444l11.39694-29.76338
	C362.55618,103.55016,362.49341,103.0197,362.24081,102.57169z M72.29259,104.76846
	c-2.01208-0.0016-3.64449,1.62818-3.64616,3.64027v9.11589c0,1.31223-1.06374,2.37597-2.37597,2.37597h-4.50648
	c-2.02525,0.01316-3.6563,1.66558-3.64321,3.69074c0.01309,2.02525,1.66551,3.6563,3.69074,3.64321v-0.01584h9.96331
	c2.28252-0.28413,4.03382-2.1622,4.15804-4.45895v-14.35103C75.93126,106.39891,74.3024,104.77007,72.29259,104.76846z
	 M59.48302,112.86766v-9.11595c0-1.31223,1.06374-2.37597,2.37597-2.37597h4.5144c0.00805-0.00007,0.01604-0.00014,0.02403-0.00021
	c2.02074-0.02188,3.64107-1.67773,3.61918-3.69846c-0.03451-2.01484-1.67557-3.63126-3.69068-3.63529h-9.9713
	c-2.28218,0.28828-4.0302,2.16972-4.15011,4.46693v14.35895c0,2.01208,1.63113,3.64322,3.64321,3.64322
	C57.85672,116.5065,59.48302,114.87666,59.48302,112.86766z M89.55523,101.95387v28.72588
	c-0.5833,5.43596-4.94952,9.68912-10.3989,10.12968H60.03745c-0.01322,0-0.02645,0-0.03968,0
	c-11.91503-0.00436-21.57051-9.66696-21.56608-21.582V91.87172c0.0043-6.3213,5.12308-11.44714,11.44439-11.46024h18.08131
	c0.008,0,0.01592,0,0.02383,0C79.88753,80.40276,89.5465,90.04763,89.55523,101.95387z M82.2531,102.09634
	c-0.0088-7.92148-6.43759-14.33598-14.35902-14.32719l-17.74079-0.03162c-2.45714,0.03472-4.42834,2.04115-4.4194,4.49856v26.85667
	c0,0.00531,0,0.01054,0,0.01584c0.00437,7.92586,6.43309,14.34754,14.35895,14.3431h18.3586
	c1.92809-0.26903,3.46321-1.74983,3.80159-3.66692v-27.61708C82.2531,102.14394,82.25317,102.1201,82.2531,102.09634z"/>
</svg>
