<?xml version="1.0" encoding="UTF-8"?>
<svg xmlns="http://www.w3.org/2000/svg" viewBox="0 0 800 320">
  <path d="M367.55079,128.08516H258.114v.0854h-1.108a.78684.78684,0,0,0-.76692.85208v62.12528A.78684.78684,0,0,0,257.006,192h14.14658a.91632.91632,0,0,0,.85207-.85208V172.74048a.854.854,0,0,1,.85232-.85231h94.69381c10.82295,0,19.60039-8.522,19.60039-18.91864V147.004C387.15118,136.60736,378.37374,128.08516,367.55079,128.08516Zm3.74966,24.88437c0,1.70415-1.70439,3.06767-3.74966,3.06767H272.857a.805.805,0,0,1-.85232-.85208V144.78845a.8052.8052,0,0,1,.85232-.85232h94.69381c2.04527,0,3.74966,1.36351,3.74966,3.06791Z" fill="#0dd"></path>
  <path d="M506.36032,169.75774l-2.89758-3.15307a.98464.98464,0,0,1,.08515-1.44891A18.75742,18.75742,0,0,0,509.428,151.606v-4.34626c0-10.48208-8.77744-19.004-19.6004-19.004H398.82715a.98453.98453,0,0,0-1.02264,1.02263v61.699A.98453.98453,0,0,0,398.82715,192h13.80567a.98447.98447,0,0,0,1.02239-1.02264V171.54729a.96735.96735,0,0,1,1.02288-.93748h70.54777a1.376,1.376,0,0,1,.76691.25572l8.18109,9.03316c0,.0854.08516.17056.08516.25572a3.23668,3.23668,0,0,1,.51143,1.53408v9.28887A1.03624,1.03624,0,0,0,495.79285,192h13.8057a1.03628,1.03628,0,0,0,1.02263-1.02264v-9.28887a20.46469,20.46469,0,0,0-3.49394-10.90812Q506.74366,170.26905,506.36032,169.75774ZM493.57726,151.606c0,1.70415-1.70439,3.15306-3.74967,3.15306h-75.1495a1.03649,1.03649,0,0,1-1.02288-1.02263v-8.60737a.98466.98466,0,0,1,1.02288-1.02239h75.1495c2.04528,0,3.74967,1.44867,3.74967,3.15307Z" fill="#0dd"></path>
  <path d="M557.49306,176.48991h-8.69252a.93325.93325,0,0,1-.85208-.93724v-31.1905a.85389.85389,0,0,1,.85208-.85208h7.92536a.93368.93368,0,0,0,.85232-.93747v-13.7203A.85414.85414,0,0,0,556.7259,128h-34.599a.8052.8052,0,0,0-.85232.85232v13.7203a.876.876,0,0,0,.85232.93747h9.45943a.85389.85389,0,0,1,.85208.85208v31.1905a.93325.93325,0,0,1-.85208.93724h-9.45943a.80532.80532,0,0,0-.85232.85231v13.8057a.85394.85394,0,0,0,.85232.85208h35.3662a.91632.91632,0,0,0,.85208-.85208v-13.8057A.8541.8541,0,0,0,557.49306,176.48991Z" fill="#0dd"></path>
  <path d="M655.14145,128.08516h-13.55a.946.946,0,0,0-.93747.93748v38.09323a1.03332,1.03332,0,0,1-1.53384.85232l-54.10044-33.4915a.88414.88414,0,0,1-.51144-.68176v-4.85745A.96721.96721,0,0,0,583.48589,128h-13.55a.96728.96728,0,0,0-.93748,1.02264v62.03988a.94569.94569,0,0,0,.93748.93748h13.55a.96706.96706,0,0,0,1.02239-.93748V153.56589a.99719.99719,0,0,1,1.44892-.85208l54.1002,33.49126a.81872.81872,0,0,1,.51144.76691c0,.34088.08516.76716.08516,1.27836v2.81218A.96727.96727,0,0,0,641.67663,192l13.46482-.08516a.96743.96743,0,0,0,.93748-1.02264V129.02264A.946.946,0,0,0,655.14145,128.08516Z" fill="#0dd"></path>
  <path d="M715.137,128.25572H667.49914a.76376.76376,0,0,0-.76692.76692v13.8057a.76376.76376,0,0,0,.76692.76691h15.16921a.91632.91632,0,0,1,.85208.85208v46.78575a.76382.76382,0,0,0,.76716.76692H698.093a.76376.76376,0,0,0,.76691-.76692V144.44733a.85394.85394,0,0,1,.85232-.85208H715.137a.76376.76376,0,0,0,.76692-.76691v-13.8057A.76376.76376,0,0,0,715.137,128.25572Z" fill="#0dd"></path>
  <path d="M238.51251,158.16787a4.487,4.487,0,0,0-2.04527-.68176l-136.5204-9.5446v-.426a4.019,4.019,0,0,1,4.2611-3.66451l132.90175.01937a.79331.79331,0,0,0,.7966-.79657v-14.192a.79331.79331,0,0,0-.7966-.79657H104.20794c-11.07867,0-20.11183,8.69252-20.11183,19.43032,0,2.89734,1.27836,11.07843,7.07329,14.40205a4.82235,4.82235,0,0,0,2.13043.68176l136.43524,9.5446c0,.17032.08516.25548.08516.34088,0,2.04527-1.96012,3.6645-4.34627,3.6645h-121.266l-3.457-.10729H89.75441a.78843.78843,0,0,0-.7917.79169v14.25195a.78847.78847,0,0,0,.7917.79169L104.20794,192H225.474c11.07868,0,20.11184-8.77768,20.11184-19.51523C245.5858,169.67234,244.30768,161.49125,238.51251,158.16787Z" fill="#0dd"></path>
</svg>
