<?xml version="1.0" encoding="UTF-8"?>
<svg xmlns="http://www.w3.org/2000/svg" id="Layer_1" data-name="Layer 1" viewBox="0 0 240 160">
  <defs>
    <style>.cls-1{fill:#fff;}</style>
  </defs>
  <path class="cls-1" d="M57.49517,69.41456V62.12032q0-5.45057-6.46072-5.45037H37.98224V84.88409h7.69108V74.86494H46.156l4.48308,10.01915h8.26155L53.71484,74.55717Q57.49423,73.58883,57.49517,69.41456Zm-7.69108-.74764q0,.96832-1.0979.9673H45.67332V62.16335h3.03287c.73126,0,1.0979.32362,1.0979.96731Z"></path>
  <polygon class="cls-1" points="88.98 75.123 88.695 74.435 85.606 75.714 87.97 73.35 87.443 72.823 85.079 75.187 86.358 72.099 85.67 71.813 84.39 74.902 84.39 71.559 83.645 71.559 83.645 74.902 82.366 71.813 81.677 72.099 82.957 75.187 80.593 72.823 80.066 73.35 82.43 75.714 79.341 74.435 79.056 75.123 82.145 76.403 78.801 76.403 78.801 77.148 82.144 77.148 79.056 78.427 79.341 79.116 82.43 77.836 80.066 80.201 80.593 80.727 82.957 78.363 81.677 81.452 82.366 81.737 83.645 78.649 83.645 81.992 84.39 81.992 84.39 78.648 85.67 81.737 86.358 81.452 85.079 78.363 87.443 80.727 87.97 80.201 85.606 77.836 88.695 79.116 88.98 78.427 85.891 77.148 89.234 77.148 89.234 76.403 85.891 76.403 88.98 75.123"></polygon>
  <polygon class="cls-1" points="60.131 84.884 77.051 84.884 77.051 79.391 67.822 79.391 67.822 73.415 75.776 73.415 75.776 67.921 67.822 67.921 67.822 62.163 77.051 62.163 77.051 56.67 60.131 56.67 60.131 84.884"></polygon>
  <path class="cls-1" d="M195.55891,56.67H182.59445V84.884h12.96446q6.45883,0,6.45885-5.44852V62.12041Q202.01776,56.66984,195.55891,56.67Zm-1.23036,22.1933q0,.96834-1.09978.9673h-2.94325V61.7234h2.94325c.73331,0,1.09978.32361,1.09978.96729Z"></path>
  <path class="cls-1" d="M141.24049,56.67,134.168,84.18925l-4.83688-9.632q3.77942-.96833,3.78031-5.14279V62.12039q0-5.45055-6.46071-5.45038h-13.052V84.884h7.69107V74.86483h.48271L126.25536,84.884h15.29272l.92278-4.21814h6.76832L150.117,84.884h7.73578l-7.251-28.214ZM125.42033,68.667q0,.968-1.09789.96729h-3.03268v-7.471h3.03268c.73144,0,1.09789.32379,1.09789.96748Zm18.23786,6.54827,2.2407-10.15143,2.153,10.15143Z"></path>
  <polygon class="cls-1" points="172.048 71.744 165.762 56.67 159.171 56.67 159.171 84.884 166.202 84.884 166.202 70.074 172.487 84.884 179.079 84.884 179.079 56.67 172.048 56.67 172.048 71.744"></polygon>
  <rect class="cls-1" x="80.32911" y="60.98105" width="7.37733" height="7.37733" transform="translate(-21.12016 78.35086) rotate(-45)"></rect>
  <path class="cls-1" d="M104.28208,56.67H91.36232V84.88411h12.91976q6.46163,0,6.46071-5.44851V75.21521a7.9089,7.9089,0,0,0-.43989-2.92164,2.95769,2.95769,0,0,0-1.67-1.60428q2.11078-1.14243,2.10993-4.96561V62.12034Q110.74279,56.66978,104.28208,56.67Zm-1.09791,22.1933q0,.96834-1.0981.9675h-3.165V73.28229h3.165q1.09716,0,1.0981.96749Zm0-11.60181q0,.96831-1.0981.96729h-3.165V61.72332h3.165c.73144,0,1.0981.3238,1.0981.96749Z"></path>
  <path class="cls-1" d="M87.8068,97.10707H85.84722a1.54433,1.54433,0,0,0-1.71457,1.71457v4.79384a1.54449,1.54449,0,0,0,1.71457,1.71457H87.8068a1.54448,1.54448,0,0,0,1.71455-1.71457v-1.0381H88.39009v1.09641a.58878.58878,0,0,1-.66489.653H85.94056a.58519.58519,0,0,1-.65319-.653V98.76315a.58534.58534,0,0,1,.65319-.6532H87.7252a.58891.58891,0,0,1,.66489.6532v.81658h1.13126v-.75809A1.54432,1.54432,0,0,0,87.8068,97.10707Z"></path>
  <path class="cls-1" d="M107.42312,97.10707h-1.95957a1.54434,1.54434,0,0,0-1.71458,1.71457v4.79384a1.5445,1.5445,0,0,0,1.71458,1.71457h1.95957a1.54448,1.54448,0,0,0,1.71455-1.71457v-1.0381h-1.13125v1.09641a.58879.58879,0,0,1-.66492.653h-1.78462a.58519.58519,0,0,1-.65318-.653V98.76315a.58533.58533,0,0,1,.65318-.6532h1.78462a.58892.58892,0,0,1,.66492.6532v.81658h1.13125v-.75809A1.54431,1.54431,0,0,0,107.42312,97.10707Z"></path>
  <path class="cls-1" d="M80.36611,103.6505a.5923.5923,0,0,1-.66493.66474h-1.9128a.584.584,0,0,1-.65318-.66474V97.15365H75.98047v6.46183a1.54457,1.54457,0,0,0,1.71456,1.71457h2.11123a1.54463,1.54463,0,0,0,1.71475-1.71457V97.15365h-1.1549Z"></path>
  <polygon class="cls-1" points="96.332 100.583 93.101 100.583 93.101 97.154 91.947 97.154 91.947 105.283 93.101 105.283 93.101 101.586 96.332 101.586 96.332 105.283 97.487 105.283 97.487 97.154 96.332 97.154 96.332 100.583"></polygon>
  <path class="cls-1" d="M71.65407,97.10707H69.54286a1.54447,1.54447,0,0,0-1.71477,1.71457v4.79384a1.54464,1.54464,0,0,0,1.71477,1.71457h2.11121a1.54457,1.54457,0,0,0,1.71457-1.71457V98.82164A1.54441,1.54441,0,0,0,71.65407,97.10707Zm.55985,6.56672a.58879.58879,0,0,1-.66492.653H69.63619a.60114.60114,0,0,1-.65318-.688V98.76315a.58533.58533,0,0,1,.65318-.6532H71.549a.58421.58421,0,0,1,.66492.6532Z"></path>
  <path class="cls-1" d="M63.8052,97.10707H61.84563a1.54433,1.54433,0,0,0-1.71457,1.71457v4.79384a1.5445,1.5445,0,0,0,1.71457,1.71457H63.8052a1.54458,1.54458,0,0,0,1.71457-1.71457v-1.0381H64.38834v1.09641a.5888.5888,0,0,1-.66493.653H61.939a.58519.58519,0,0,1-.65319-.653V98.76315A.58533.58533,0,0,1,61.939,98.11h1.78444a.58893.58893,0,0,1,.66493.6532v.81658h1.13143v-.75809A1.54441,1.54441,0,0,0,63.8052,97.10707Z"></path>
  <polygon class="cls-1" points="175.136 104.292 175.136 101.563 178.694 101.563 178.694 100.594 175.136 100.594 175.136 98.145 178.985 98.145 178.985 97.154 173.981 97.154 173.981 105.283 179.079 105.283 179.079 104.292 175.136 104.292"></polygon>
  <polygon class="cls-1" points="127.961 105.283 129.115 105.283 129.115 101.877 132.79 101.877 132.79 100.886 129.115 100.886 129.115 98.145 133.081 98.145 133.081 97.154 127.961 97.154 127.961 105.283"></polygon>
  <polygon class="cls-1" points="162.436 103.161 159.042 97.154 157.957 97.154 157.957 105.283 159.03 105.283 159.03 99.276 162.448 105.283 163.497 105.283 163.497 97.154 162.436 97.154 162.436 103.161"></polygon>
  <polygon class="cls-1" points="136.428 101.563 139.985 101.563 139.985 100.594 136.428 100.594 136.428 98.145 140.277 98.145 140.277 97.154 135.273 97.154 135.273 105.283 140.37 105.283 140.37 104.292 136.428 104.292 136.428 101.563"></polygon>
  <path class="cls-1" d="M148.02119,100.3378V98.86822a1.54449,1.54449,0,0,0-1.71458-1.71457h-3.59252v8.12963h1.15472v-3.23091h1.84275l1.08486,3.23091h1.23632l-1.15472-3.28922A1.51268,1.51268,0,0,0,148.02119,100.3378Zm-1.15473.05831a.589.589,0,0,1-.65318.66493h-2.34447V98.145h2.34447a.58531.58531,0,0,1,.65318.65319Z"></path>
  <path class="cls-1" d="M115.27217,97.10707h-2.11123a1.54432,1.54432,0,0,0-1.71455,1.71457v4.79384a1.54448,1.54448,0,0,0,1.71455,1.71457h2.11123a1.54457,1.54457,0,0,0,1.71457-1.71457V98.82164A1.54441,1.54441,0,0,0,115.27217,97.10707Zm.55985,6.56672a.5888.5888,0,0,1-.66492.653h-1.91282a.60113.60113,0,0,1-.65316-.688V98.76315a.58531.58531,0,0,1,.65316-.6532h1.91282a.58421.58421,0,0,1,.66492.6532Z"></path>
  <path class="cls-1" d="M169.84153,97.10707H167.882a1.54433,1.54433,0,0,0-1.71457,1.71457v4.79384a1.54449,1.54449,0,0,0,1.71457,1.71457h1.95958a1.54448,1.54448,0,0,0,1.71455-1.71457v-1.0381h-1.13126v1.09641a.58879.58879,0,0,1-.66492.653h-1.78462a.58514.58514,0,0,1-.653-.653V98.76315a.58528.58528,0,0,1,.653-.6532h1.78462a.58892.58892,0,0,1,.66492.6532v.81658h1.13126v-.75809A1.54432,1.54432,0,0,0,169.84153,97.10707Z"></path>
  <polygon class="cls-1" points="151.671 101.563 155.229 101.563 155.229 100.594 151.671 100.594 151.671 98.145 155.52 98.145 155.52 97.154 150.516 97.154 150.516 105.283 155.613 105.283 155.613 104.292 151.671 104.292 151.671 101.563"></polygon>
  <polygon class="cls-1" points="124.113 103.161 120.718 97.154 119.634 97.154 119.634 105.283 120.707 105.283 120.707 99.276 124.124 105.283 125.174 105.283 125.174 97.154 124.113 97.154 124.113 103.161"></polygon>
</svg>
