<svg id="Layer_1" data-name="Layer 1" xmlns="http://www.w3.org/2000/svg" viewBox="0 0 240 160"><defs><style>.cls-1{fill:#a7aab2;}</style></defs><polygon class="cls-1" points="117.987 40.529 93.757 69.782 117.987 69.782 117.987 40.529"/><path class="cls-1" d="M105.8723,42.14385a12.115,12.115,0,0,0,12.115-12.115H93.75727A12.115,12.115,0,0,0,105.8723,42.14385Z"/><path class="cls-1" d="M134.094,57.6673a12.115,12.115,0,0,0-12.115,12.115H146.209A12.115,12.115,0,0,0,134.094,57.6673Z"/><polygon class="cls-1" points="121.979 30.029 121.979 59.282 146.212 30.029 121.979 30.029"/><path class="cls-1" d="M135.193,84.59821h-.22038a6.22076,6.22076,0,0,0-6.09636,6.34c0,3.647,2.62309,6.34007,6.6848,6.34007a6.5453,6.5453,0,0,0,4.99218-1.96994l-1.66406-1.79624a4.70988,4.70988,0,0,1-3.35668,1.296l-.00253.01036a3.43391,3.43391,0,0,1-3.75068-2.89527h9.5334C141.5123,87.66712,139.22619,84.59821,135.193,84.59821Zm-3.41371,5.29546A3.266,3.266,0,0,1,135.2189,87.027a3.04966,3.04966,0,0,1,3.21667,2.86672Z"/><polygon class="cls-1" points="83.77 94.723 76.334 94.723 83.672 87.276 83.672 84.889 73.107 84.889 73.107 87.221 80.271 87.221 72.933 94.676 72.933 97.055 83.77 97.055 83.77 94.723"/><path class="cls-1" d="M92.03878,97.27827A6.54516,6.54516,0,0,0,97.031,95.30833L95.3669,93.51209a4.70969,4.70969,0,0,1-3.35659,1.296l-.00261.01036a3.43383,3.43383,0,0,1-3.7506-2.89527h9.53332c.19965-4.25606-2.08654-7.325-6.1197-7.325h-.22029a6.22075,6.22075,0,0,0-6.09636,6.34C85.35407,94.58518,87.97716,97.27827,92.03878,97.27827ZM91.69667,87.027a3.04975,3.04975,0,0,1,3.21666,2.86672H88.2571A3.2659,3.2659,0,0,1,91.69667,87.027Z"/><path class="cls-1" d="M123.809,86.42815a5.27987,5.27987,0,0,0-4.06171-1.82733,6.09245,6.09245,0,0,0-6.11455,6.33485h.00008a6.13668,6.13668,0,0,0,6.09114,6.33224,5.2074,5.2074,0,0,0,4.085-1.92327v1.68217h2.592V79.24312h-2.592Zm-3.71952,8.45509a3.86726,3.86726,0,1,1,3.86467-3.9709A3.86725,3.86725,0,0,1,120.08946,94.88324Z"/><path class="cls-1" d="M143.51333,88.25547c0,2.5065,2.15916,3.1908,4.23273,3.62887,1.54224.31617,2.96006.53646,2.96006,1.51107,0,.8528-.75945,1.607-2.22655,1.607a3.47575,3.47575,0,0,1-3.13108-1.778l-2.34837,1.21824h.00515a5.73213,5.73213,0,0,0,5.3577,2.82527c3.47327.02334,4.94037-2.24213,4.94037-3.9217,0-2.53243-2.27322-3.1908-4.27939-3.62886-1.76262-.39132-2.88753-.635-2.88753-1.51108,0-.78018.71025-1.46187,2.10474-1.46187a3.16475,3.16475,0,0,1,2.73976,1.38926l2.17727-1.19491a5.60741,5.60741,0,0,0-4.92486-2.36126C145.34588,84.55154,143.51333,86.32967,143.51333,88.25547Z"/><polygon class="cls-1" points="158.285 93.867 160.341 91.617 164.133 97.024 167.067 97.024 162.173 90.057 166.945 84.844 163.788 84.844 158.285 90.886 158.285 79.241 155.693 79.241 155.693 97.032 158.285 97.032 158.285 93.867"/><path class="cls-1" d="M111.45031,97.02428V89.90917c0-3.31064-2.58915-5.30858-5.65837-5.31088-3.07959.0023-5.6583,2.00016-5.6583,5.31088v7.11511h2.6412V90.23839a2.89061,2.89061,0,0,1,3.11044-3.19333c1.96211,0,2.93672,1.19491,2.93672,3.19333v6.78589Z"/><polygon class="cls-1" points="105.787 84.598 105.792 84.598 105.797 84.598 105.787 84.598"/><path class="cls-1" d="M79.51424,114.70427c-2.26539-.74909-4.38824-1.3997-4.38824-3.66509,0-1.90509,1.66406-3.22964,3.81024-3.22964a4.70269,4.70269,0,0,1,4.09794,2.02437l1.08345-.845a6.24669,6.24669,0,0,0-5.184-2.41062c-2.94186,0-5.23067,1.88183-5.23067,4.46086,0,3.03781,2.50649,3.95278,4.94037,4.74854,2.29134.75431,4.48419,1.50341,4.48419,3.888,0,2.24206-1.87922,3.71437-4.24309,3.71437a5.42252,5.42252,0,0,1-4.66565-2.53243l-1.18193.915a6.86268,6.86268,0,0,0,5.82686,2.88491c3.30217,0,5.666-2.23945,5.666-4.98957C84.52975,116.5187,81.97406,115.52336,79.51424,114.70427Z"/><path class="cls-1" d="M89.64636,108.73234l-1.39709.819v2.82013H86.1757l.013,1.23122h2.07357v6.42558c0,3.47066.915,4.38563,4.26642,4.38563h.17885v-1.27528c-2.52975,0-3.06115-.45879-3.06115-3.1363v-6.41h3.06115v-1.23122H89.64636Z"/><path class="cls-1" d="M105.48352,114.88051a5.70626,5.70626,0,0,0-4.86775-2.75005,6.16545,6.16545,0,0,0-6.19753,6.26746q-.00072.056-.00056.11208a6.17936,6.17936,0,0,0,6.20323,6.15537,5.71325,5.71325,0,0,0,4.86775-2.74759v2.50649h1.36862V112.37148h-1.37376Zm.14562,3.58005a4.90016,4.90016,0,1,1-.00047-.06264Z"/><path class="cls-1" d="M111.80025,114.63948v-2.268h-1.3505l.00261,12.05279h1.37376v-6.29079c0-2.9652,1.30122-4.48411,4.28976-4.48411h.74648v-1.27789h-.74909A4.46157,4.46157,0,0,0,111.80025,114.63948Z"/><path class="cls-1" d="M122.21231,108.73234l-1.39709.819v2.82013h-2.07365v1.23122h2.07365v6.42558c0,3.47066.915,4.38563,4.26642,4.38563h.19182v-1.27528c-2.52982,0-3.06115-.45879-3.06115-3.1363v-6.41h3.06115v-1.23122h-3.06115Z"/><path class="cls-1" d="M137.59322,119.09773a4.13258,4.13258,0,0,1-4.17055,4.3157c-2.62831,0-4.0254-1.70037-4.0254-4.29237v-6.73921H128.021v6.73921c0,3.44733,1.88174,5.54431,5.29284,5.54431a4.715,4.715,0,0,0,4.3157-2.52983v2.28873H138.967V112.37148h-1.37375Z"/><path class="cls-1" d="M148.744,112.13038a5.69182,5.69182,0,0,0-4.89369,2.77346v-2.53236h-1.296v17.59971H143.884v-7.95746a5.44226,5.44226,0,0,0,4.86,2.65156q.05483.00024.10956-.00063a6.2687,6.2687,0,0,0-.10956-12.53428Zm4.80558,6.26754a4.91884,4.91884,0,0,1-4.87036,5.01551,5.01555,5.01555,0,0,1,0-10.0285,4.91975,4.91975,0,0,1,4.87036,5.01291Z"/><path class="cls-1" d="M162.16279,117.67991c-1.76-.42509-3.39812-.8191-3.39812-2.23952,0-1.20788,1.03417-2.14619,2.89266-2.14619a4.27679,4.27679,0,0,1,3.34885,1.46971l1.03678-.84243a5.81675,5.81675,0,0,0-4.38563-1.81435c-2.58163,0-4.24308,1.56811-4.24308,3.35145,0,2.24206,2.0969,2.86933,4.02532,3.34884,1.76.42771,3.47074.7491,3.47074,2.24206,0,1.30375-1.08346,2.41054-3.1571,2.41054a4.66551,4.66551,0,0,1-3.888-1.95175l-1.10932.91758a6.04559,6.04559,0,0,0,4.94811,2.23952c3.13369,0,4.55673-1.97517,4.55673-3.61589C166.26073,118.74264,164.14049,118.162,162.16279,117.67991Z"/></svg>